G04 PROTEUS GERBER X2 FILE*
%TF.GenerationSoftware,Labcenter,Proteus,8.13-SP0-Build31525*%
%TF.CreationDate,2022-10-12T09:32:55+00:00*%
%TF.FileFunction,Legend,Top*%
%TF.FilePolarity,Positive*%
%TF.Part,Single*%
%TF.SameCoordinates,{96deeafe-a607-4606-be7e-3443a3b47cd9}*%
%FSLAX45Y45*%
%MOMM*%
G01*
%TA.AperFunction,Profile*%
%ADD18C,0.203110*%
%TA.AperFunction,Material*%
%ADD19C,0.203110*%
%ADD70C,0.063500*%
%TD.AperFunction*%
D18*
X+3850000Y+0D02*
X+3844096Y+213142D01*
X+3796529Y+639427D01*
X+3699562Y+1065712D01*
X+3549147Y+1491997D01*
X+3338067Y+1918282D01*
X+3053769Y+2344567D01*
X+2673870Y+2770003D01*
X+2247585Y+3125838D01*
X+1821300Y+3391956D01*
X+1395015Y+3588375D01*
X+968730Y+3726132D01*
X+542445Y+3811595D01*
X+116160Y+3848247D01*
X+0Y+3850000D01*
X-3850000Y+0D02*
X-3844096Y+213142D01*
X-3796529Y+639427D01*
X-3699562Y+1065712D01*
X-3549147Y+1491997D01*
X-3338067Y+1918282D01*
X-3053769Y+2344567D01*
X-2673870Y+2770003D01*
X-2247585Y+3125838D01*
X-1821300Y+3391956D01*
X-1395015Y+3588375D01*
X-968730Y+3726132D01*
X-542445Y+3811595D01*
X-116160Y+3848247D01*
X+0Y+3850000D01*
X-3850000Y+0D02*
X-3844096Y-213142D01*
X-3796529Y-639427D01*
X-3699562Y-1065712D01*
X-3549147Y-1491997D01*
X-3338067Y-1918282D01*
X-3053769Y-2344567D01*
X-2673870Y-2770003D01*
X-2247585Y-3125838D01*
X-1821300Y-3391956D01*
X-1395015Y-3588375D01*
X-968730Y-3726132D01*
X-542445Y-3811595D01*
X-116160Y-3848247D01*
X+0Y-3850000D01*
X+3850000Y+0D02*
X+3844096Y-213142D01*
X+3796529Y-639427D01*
X+3699562Y-1065712D01*
X+3549147Y-1491997D01*
X+3338067Y-1918282D01*
X+3053769Y-2344567D01*
X+2673870Y-2770003D01*
X+2247585Y-3125838D01*
X+1821300Y-3391956D01*
X+1395015Y-3588375D01*
X+968730Y-3726132D01*
X+542445Y-3811595D01*
X+116160Y-3848247D01*
X+0Y-3850000D01*
D19*
X-1260000Y+1550000D02*
X+1260000Y+1550000D01*
X+1260000Y+3450000D01*
X-1260000Y+3450000D01*
X-1260000Y+1550000D01*
X-1270000Y+1528000D02*
X-10000Y+1528000D01*
X-10000Y+3428000D01*
X-1270000Y+3428000D01*
X-1270000Y+1528000D01*
D70*
X-788011Y+3469275D02*
X-777851Y+3469275D01*
X-711811Y+3469275D02*
X-676251Y+3469275D01*
X-640691Y+3469275D02*
X-569571Y+3469275D01*
X-528931Y+3469275D02*
X-498451Y+3469275D01*
X-788011Y+3474355D02*
X-777851Y+3474355D01*
X-721971Y+3474355D02*
X-666091Y+3474355D01*
X-640691Y+3474355D02*
X-569571Y+3474355D01*
X-539091Y+3474355D02*
X-488291Y+3474355D01*
X-788011Y+3479435D02*
X-777851Y+3479435D01*
X-727051Y+3479435D02*
X-706731Y+3479435D01*
X-676251Y+3479435D02*
X-661011Y+3479435D01*
X-640691Y+3479435D02*
X-630531Y+3479435D01*
X-549251Y+3479435D02*
X-528931Y+3479435D01*
X-498451Y+3479435D02*
X-478131Y+3479435D01*
X-788011Y+3484515D02*
X-777851Y+3484515D01*
X-727051Y+3484515D02*
X-716891Y+3484515D01*
X-671171Y+3484515D02*
X-655931Y+3484515D01*
X-640691Y+3484515D02*
X-630531Y+3484515D01*
X-549251Y+3484515D02*
X-539091Y+3484515D01*
X-488291Y+3484515D02*
X-478131Y+3484515D01*
X-782931Y+3489595D02*
X-772771Y+3489595D01*
X-732131Y+3489595D02*
X-721971Y+3489595D01*
X-666091Y+3489595D02*
X-655931Y+3489595D01*
X-640691Y+3489595D02*
X-630531Y+3489595D01*
X-554331Y+3489595D02*
X-544171Y+3489595D01*
X-488291Y+3489595D02*
X-478131Y+3489595D01*
X-782931Y+3494675D02*
X-772771Y+3494675D01*
X-732131Y+3494675D02*
X-721971Y+3494675D01*
X-666091Y+3494675D02*
X-655931Y+3494675D01*
X-640691Y+3494675D02*
X-630531Y+3494675D01*
X-554331Y+3494675D02*
X-544171Y+3494675D01*
X-488291Y+3494675D02*
X-478131Y+3494675D01*
X-782931Y+3499755D02*
X-772771Y+3499755D01*
X-666091Y+3499755D02*
X-655931Y+3499755D01*
X-640691Y+3499755D02*
X-630531Y+3499755D01*
X-559411Y+3499755D02*
X-549251Y+3499755D01*
X-488291Y+3499755D02*
X-478131Y+3499755D01*
X-777851Y+3504835D02*
X-767691Y+3504835D01*
X-676251Y+3504835D02*
X-661011Y+3504835D01*
X-640691Y+3504835D02*
X-630531Y+3504835D01*
X-559411Y+3504835D02*
X-549251Y+3504835D01*
X-513691Y+3504835D02*
X-478131Y+3504835D01*
X-777851Y+3509915D02*
X-767691Y+3509915D01*
X-701651Y+3509915D02*
X-661011Y+3509915D01*
X-640691Y+3509915D02*
X-574651Y+3509915D01*
X-559411Y+3509915D02*
X-549251Y+3509915D01*
X-513691Y+3509915D02*
X-478131Y+3509915D01*
X-772771Y+3514995D02*
X-762611Y+3514995D01*
X-716891Y+3514995D02*
X-671171Y+3514995D01*
X-640691Y+3514995D02*
X-574651Y+3514995D01*
X-559411Y+3514995D02*
X-549251Y+3514995D01*
X-772771Y+3520075D02*
X-762611Y+3520075D01*
X-721971Y+3520075D02*
X-691491Y+3520075D01*
X-640691Y+3520075D02*
X-630531Y+3520075D01*
X-559411Y+3520075D02*
X-549251Y+3520075D01*
X-767691Y+3525155D02*
X-757531Y+3525155D01*
X-727051Y+3525155D02*
X-711811Y+3525155D01*
X-640691Y+3525155D02*
X-630531Y+3525155D01*
X-559411Y+3525155D02*
X-549251Y+3525155D01*
X-767691Y+3530235D02*
X-757531Y+3530235D01*
X-727051Y+3530235D02*
X-716891Y+3530235D01*
X-640691Y+3530235D02*
X-630531Y+3530235D01*
X-554331Y+3530235D02*
X-544171Y+3530235D01*
X-488291Y+3530235D02*
X-483211Y+3530235D01*
X-762611Y+3535315D02*
X-752451Y+3535315D01*
X-727051Y+3535315D02*
X-716891Y+3535315D01*
X-666091Y+3535315D02*
X-655931Y+3535315D01*
X-640691Y+3535315D02*
X-630531Y+3535315D01*
X-554331Y+3535315D02*
X-544171Y+3535315D01*
X-493371Y+3535315D02*
X-478131Y+3535315D01*
X-762611Y+3540395D02*
X-752451Y+3540395D01*
X-727051Y+3540395D02*
X-716891Y+3540395D01*
X-671171Y+3540395D02*
X-655931Y+3540395D01*
X-640691Y+3540395D02*
X-630531Y+3540395D01*
X-549251Y+3540395D02*
X-539091Y+3540395D01*
X-493371Y+3540395D02*
X-483211Y+3540395D01*
X-757531Y+3545475D02*
X-747371Y+3545475D01*
X-721971Y+3545475D02*
X-706731Y+3545475D01*
X-676251Y+3545475D02*
X-661011Y+3545475D01*
X-640691Y+3545475D02*
X-630531Y+3545475D01*
X-549251Y+3545475D02*
X-528931Y+3545475D01*
X-503531Y+3545475D02*
X-483211Y+3545475D01*
X-803251Y+3550555D02*
X-742291Y+3550555D01*
X-716891Y+3550555D02*
X-666091Y+3550555D01*
X-640691Y+3550555D02*
X-569571Y+3550555D01*
X-544171Y+3550555D02*
X-488291Y+3550555D01*
X-803251Y+3555635D02*
X-742291Y+3555635D01*
X-706731Y+3555635D02*
X-676251Y+3555635D01*
X-640691Y+3555635D02*
X-569571Y+3555635D01*
X-534011Y+3555635D02*
X-498451Y+3555635D01*
D19*
X+0Y+1528000D02*
X+1260000Y+1528000D01*
X+1260000Y+3428000D01*
X+0Y+3428000D01*
X+0Y+1528000D01*
D70*
X+599975Y+3530235D02*
X+599975Y+3540395D01*
X+605055Y+3530235D02*
X+605055Y+3540395D01*
X+610135Y+3530235D02*
X+610135Y+3545475D01*
X+615215Y+3535315D02*
X+615215Y+3550555D01*
X+620295Y+3540395D02*
X+620295Y+3550555D01*
X+625375Y+3469275D02*
X+625375Y+3560715D01*
X+630455Y+3469275D02*
X+630455Y+3560715D01*
D19*
X-2373000Y+1250000D02*
X-2246000Y+1250000D01*
X-2246000Y+1186500D02*
X-1738000Y+1186500D01*
X-1738000Y+1313500D01*
X-2246000Y+1313500D01*
X-2246000Y+1186500D01*
X-1738000Y+1250000D02*
X-1611000Y+1250000D01*
D70*
X-2067592Y+1354770D02*
X-2057432Y+1354770D01*
X-2006632Y+1354770D02*
X-1991392Y+1354770D01*
X-1950752Y+1354770D02*
X-1940592Y+1354770D01*
X-2067592Y+1359850D02*
X-2057432Y+1359850D01*
X-2011712Y+1359850D02*
X-1996472Y+1359850D01*
X-1950752Y+1359850D02*
X-1940592Y+1359850D01*
X-2067592Y+1364930D02*
X-2057432Y+1364930D01*
X-2016792Y+1364930D02*
X-2001552Y+1364930D01*
X-1950752Y+1364930D02*
X-1940592Y+1364930D01*
X-2067592Y+1370010D02*
X-2057432Y+1370010D01*
X-2016792Y+1370010D02*
X-2001552Y+1370010D01*
X-1950752Y+1370010D02*
X-1940592Y+1370010D01*
X-2067592Y+1375090D02*
X-2057432Y+1375090D01*
X-2021872Y+1375090D02*
X-2006632Y+1375090D01*
X-1950752Y+1375090D02*
X-1940592Y+1375090D01*
X-2067592Y+1380170D02*
X-2057432Y+1380170D01*
X-2026952Y+1380170D02*
X-2011712Y+1380170D01*
X-1950752Y+1380170D02*
X-1940592Y+1380170D01*
X-2067592Y+1385250D02*
X-2057432Y+1385250D01*
X-2026952Y+1385250D02*
X-2016792Y+1385250D01*
X-1950752Y+1385250D02*
X-1940592Y+1385250D01*
X-2067592Y+1390330D02*
X-2057432Y+1390330D01*
X-2032032Y+1390330D02*
X-2016792Y+1390330D01*
X-1950752Y+1390330D02*
X-1940592Y+1390330D01*
X-2067592Y+1395410D02*
X-2011712Y+1395410D01*
X-1950752Y+1395410D02*
X-1940592Y+1395410D01*
X-2067592Y+1400490D02*
X-2001552Y+1400490D01*
X-1950752Y+1400490D02*
X-1940592Y+1400490D01*
X-2067592Y+1405570D02*
X-2057432Y+1405570D01*
X-2016792Y+1405570D02*
X-2001552Y+1405570D01*
X-1950752Y+1405570D02*
X-1940592Y+1405570D01*
X-2067592Y+1410650D02*
X-2057432Y+1410650D01*
X-2006632Y+1410650D02*
X-1996472Y+1410650D01*
X-1950752Y+1410650D02*
X-1940592Y+1410650D01*
X-2067592Y+1415730D02*
X-2057432Y+1415730D01*
X-2006632Y+1415730D02*
X-1996472Y+1415730D01*
X-1976152Y+1415730D02*
X-1960912Y+1415730D01*
X-1950752Y+1415730D02*
X-1940592Y+1415730D01*
X-2067592Y+1420810D02*
X-2057432Y+1420810D01*
X-2006632Y+1420810D02*
X-1996472Y+1420810D01*
X-1976152Y+1420810D02*
X-1955832Y+1420810D01*
X-1950752Y+1420810D02*
X-1940592Y+1420810D01*
X-2067592Y+1425890D02*
X-2057432Y+1425890D01*
X-2006632Y+1425890D02*
X-1996472Y+1425890D01*
X-1965992Y+1425890D02*
X-1940592Y+1425890D01*
X-2067592Y+1430970D02*
X-2057432Y+1430970D01*
X-2016792Y+1430970D02*
X-2001552Y+1430970D01*
X-1960912Y+1430970D02*
X-1940592Y+1430970D01*
X-2067592Y+1436050D02*
X-2001552Y+1436050D01*
X-1950752Y+1436050D02*
X-1940592Y+1436050D01*
X-2067592Y+1441130D02*
X-2011712Y+1441130D01*
X-1950752Y+1441130D02*
X-1940592Y+1441130D01*
D19*
X-2373000Y+1000000D02*
X-2246000Y+1000000D01*
X-2246000Y+936500D02*
X-1738000Y+936500D01*
X-1738000Y+1063500D01*
X-2246000Y+1063500D01*
X-2246000Y+936500D01*
X-1738000Y+1000000D02*
X-1611000Y+1000000D01*
D70*
X-2067592Y+1104770D02*
X-2057432Y+1104770D01*
X-2006632Y+1104770D02*
X-1991392Y+1104770D01*
X-1981232Y+1104770D02*
X-1920272Y+1104770D01*
X-2067592Y+1109850D02*
X-2057432Y+1109850D01*
X-2011712Y+1109850D02*
X-1996472Y+1109850D01*
X-1981232Y+1109850D02*
X-1920272Y+1109850D01*
X-2067592Y+1114930D02*
X-2057432Y+1114930D01*
X-2016792Y+1114930D02*
X-2001552Y+1114930D01*
X-1976152Y+1114930D02*
X-1965992Y+1114930D01*
X-2067592Y+1120010D02*
X-2057432Y+1120010D01*
X-2016792Y+1120010D02*
X-2001552Y+1120010D01*
X-1971072Y+1120010D02*
X-1960912Y+1120010D01*
X-2067592Y+1125090D02*
X-2057432Y+1125090D01*
X-2021872Y+1125090D02*
X-2006632Y+1125090D01*
X-1965992Y+1125090D02*
X-1950752Y+1125090D01*
X-2067592Y+1130170D02*
X-2057432Y+1130170D01*
X-2026952Y+1130170D02*
X-2011712Y+1130170D01*
X-1960912Y+1130170D02*
X-1945672Y+1130170D01*
X-2067592Y+1135250D02*
X-2057432Y+1135250D01*
X-2026952Y+1135250D02*
X-2016792Y+1135250D01*
X-1950752Y+1135250D02*
X-1940592Y+1135250D01*
X-2067592Y+1140330D02*
X-2057432Y+1140330D01*
X-2032032Y+1140330D02*
X-2016792Y+1140330D01*
X-1945672Y+1140330D02*
X-1935512Y+1140330D01*
X-2067592Y+1145410D02*
X-2011712Y+1145410D01*
X-1940592Y+1145410D02*
X-1930432Y+1145410D01*
X-2067592Y+1150490D02*
X-2001552Y+1150490D01*
X-1935512Y+1150490D02*
X-1925352Y+1150490D01*
X-2067592Y+1155570D02*
X-2057432Y+1155570D01*
X-2016792Y+1155570D02*
X-2001552Y+1155570D01*
X-1935512Y+1155570D02*
X-1925352Y+1155570D01*
X-2067592Y+1160650D02*
X-2057432Y+1160650D01*
X-2006632Y+1160650D02*
X-1996472Y+1160650D01*
X-1930432Y+1160650D02*
X-1920272Y+1160650D01*
X-2067592Y+1165730D02*
X-2057432Y+1165730D01*
X-2006632Y+1165730D02*
X-1996472Y+1165730D01*
X-1930432Y+1165730D02*
X-1920272Y+1165730D01*
X-2067592Y+1170810D02*
X-2057432Y+1170810D01*
X-2006632Y+1170810D02*
X-1996472Y+1170810D01*
X-1981232Y+1170810D02*
X-1971072Y+1170810D01*
X-1930432Y+1170810D02*
X-1920272Y+1170810D01*
X-2067592Y+1175890D02*
X-2057432Y+1175890D01*
X-2006632Y+1175890D02*
X-1996472Y+1175890D01*
X-1981232Y+1175890D02*
X-1971072Y+1175890D01*
X-1935512Y+1175890D02*
X-1920272Y+1175890D01*
X-2067592Y+1180970D02*
X-2057432Y+1180970D01*
X-2016792Y+1180970D02*
X-2001552Y+1180970D01*
X-1976152Y+1180970D02*
X-1960912Y+1180970D01*
X-1940592Y+1180970D02*
X-1925352Y+1180970D01*
X-2067592Y+1186050D02*
X-2001552Y+1186050D01*
X-1971072Y+1186050D02*
X-1930432Y+1186050D01*
X-2067592Y+1191130D02*
X-2011712Y+1191130D01*
X-1965992Y+1191130D02*
X-1935512Y+1191130D01*
D19*
X+1627000Y+1250000D02*
X+1754000Y+1250000D01*
X+1754000Y+1186500D02*
X+2262000Y+1186500D01*
X+2262000Y+1313500D01*
X+1754000Y+1313500D01*
X+1754000Y+1186500D01*
X+2262000Y+1250000D02*
X+2389000Y+1250000D01*
D70*
X+1932408Y+1354770D02*
X+1942568Y+1354770D01*
X+1993368Y+1354770D02*
X+2008608Y+1354770D01*
X+2034008Y+1354770D02*
X+2059408Y+1354770D01*
X+1932408Y+1359850D02*
X+1942568Y+1359850D01*
X+1988288Y+1359850D02*
X+2003528Y+1359850D01*
X+2028928Y+1359850D02*
X+2069568Y+1359850D01*
X+1932408Y+1364930D02*
X+1942568Y+1364930D01*
X+1983208Y+1364930D02*
X+1998448Y+1364930D01*
X+2023848Y+1364930D02*
X+2034008Y+1364930D01*
X+2059408Y+1364930D02*
X+2074648Y+1364930D01*
X+1932408Y+1370010D02*
X+1942568Y+1370010D01*
X+1983208Y+1370010D02*
X+1998448Y+1370010D01*
X+2018768Y+1370010D02*
X+2034008Y+1370010D01*
X+2064488Y+1370010D02*
X+2079728Y+1370010D01*
X+1932408Y+1375090D02*
X+1942568Y+1375090D01*
X+1978128Y+1375090D02*
X+1993368Y+1375090D01*
X+2018768Y+1375090D02*
X+2028928Y+1375090D01*
X+2069568Y+1375090D02*
X+2079728Y+1375090D01*
X+1932408Y+1380170D02*
X+1942568Y+1380170D01*
X+1973048Y+1380170D02*
X+1988288Y+1380170D01*
X+2069568Y+1380170D02*
X+2079728Y+1380170D01*
X+1932408Y+1385250D02*
X+1942568Y+1385250D01*
X+1973048Y+1385250D02*
X+1983208Y+1385250D01*
X+2069568Y+1385250D02*
X+2079728Y+1385250D01*
X+1932408Y+1390330D02*
X+1942568Y+1390330D01*
X+1967968Y+1390330D02*
X+1983208Y+1390330D01*
X+2069568Y+1390330D02*
X+2079728Y+1390330D01*
X+1932408Y+1395410D02*
X+1988288Y+1395410D01*
X+2064488Y+1395410D02*
X+2074648Y+1395410D01*
X+1932408Y+1400490D02*
X+1998448Y+1400490D01*
X+2039088Y+1400490D02*
X+2069568Y+1400490D01*
X+1932408Y+1405570D02*
X+1942568Y+1405570D01*
X+1983208Y+1405570D02*
X+1998448Y+1405570D01*
X+2039088Y+1405570D02*
X+2064488Y+1405570D01*
X+1932408Y+1410650D02*
X+1942568Y+1410650D01*
X+1993368Y+1410650D02*
X+2003528Y+1410650D01*
X+2059408Y+1410650D02*
X+2069568Y+1410650D01*
X+1932408Y+1415730D02*
X+1942568Y+1415730D01*
X+1993368Y+1415730D02*
X+2003528Y+1415730D01*
X+2064488Y+1415730D02*
X+2074648Y+1415730D01*
X+1932408Y+1420810D02*
X+1942568Y+1420810D01*
X+1993368Y+1420810D02*
X+2003528Y+1420810D01*
X+2018768Y+1420810D02*
X+2028928Y+1420810D01*
X+2064488Y+1420810D02*
X+2074648Y+1420810D01*
X+1932408Y+1425890D02*
X+1942568Y+1425890D01*
X+1993368Y+1425890D02*
X+2003528Y+1425890D01*
X+2018768Y+1425890D02*
X+2034008Y+1425890D01*
X+2064488Y+1425890D02*
X+2074648Y+1425890D01*
X+1932408Y+1430970D02*
X+1942568Y+1430970D01*
X+1983208Y+1430970D02*
X+1998448Y+1430970D01*
X+2023848Y+1430970D02*
X+2039088Y+1430970D01*
X+2059408Y+1430970D02*
X+2074648Y+1430970D01*
X+1932408Y+1436050D02*
X+1998448Y+1436050D01*
X+2028928Y+1436050D02*
X+2069568Y+1436050D01*
X+1932408Y+1441130D02*
X+1988288Y+1441130D01*
X+2034008Y+1441130D02*
X+2059408Y+1441130D01*
D19*
X+1623000Y-123000D02*
X+1623000Y+4000D01*
X+1750000Y+131000D02*
X+1747564Y+156876D01*
X+1740515Y+180848D01*
X+1729238Y+202438D01*
X+1714122Y+221170D01*
X+1695554Y+236569D01*
X+1673919Y+248158D01*
X+1649606Y+255460D01*
X+1623000Y+258000D01*
X+1750000Y+131000D02*
X+1747564Y+104394D01*
X+1740515Y+80081D01*
X+1729238Y+58446D01*
X+1714122Y+39878D01*
X+1695554Y+24762D01*
X+1673919Y+13485D01*
X+1649606Y+6436D01*
X+1623000Y+4000D01*
X+1623000Y+258000D02*
X+1623000Y+385000D01*
X+3655000Y-123000D02*
X+3655000Y+385000D01*
X+1623000Y-123000D02*
X+3655000Y-123000D01*
X+3655000Y+385000D02*
X+1623000Y+385000D01*
D70*
X+1481400Y+55408D02*
X+1481400Y+65568D01*
X+1481400Y+116368D02*
X+1481400Y+126528D01*
X+1481400Y+157008D02*
X+1481400Y+182408D01*
X+1486480Y+55408D02*
X+1486480Y+65568D01*
X+1486480Y+116368D02*
X+1486480Y+126528D01*
X+1486480Y+151928D02*
X+1486480Y+192568D01*
X+1491560Y+55408D02*
X+1491560Y+65568D01*
X+1491560Y+116368D02*
X+1491560Y+126528D01*
X+1491560Y+146848D02*
X+1491560Y+162088D01*
X+1491560Y+182408D02*
X+1491560Y+197648D01*
X+1496640Y+55408D02*
X+1496640Y+65568D01*
X+1496640Y+116368D02*
X+1496640Y+126528D01*
X+1496640Y+141768D02*
X+1496640Y+157008D01*
X+1496640Y+187488D02*
X+1496640Y+197648D01*
X+1501720Y+55408D02*
X+1501720Y+65568D01*
X+1501720Y+116368D02*
X+1501720Y+126528D01*
X+1501720Y+141768D02*
X+1501720Y+151928D01*
X+1501720Y+187488D02*
X+1501720Y+197648D01*
X+1506800Y+55408D02*
X+1506800Y+65568D01*
X+1506800Y+116368D02*
X+1506800Y+126528D01*
X+1506800Y+187488D02*
X+1506800Y+197648D01*
X+1511880Y+55408D02*
X+1511880Y+65568D01*
X+1511880Y+116368D02*
X+1511880Y+126528D01*
X+1511880Y+182408D02*
X+1511880Y+192568D01*
X+1516960Y+55408D02*
X+1516960Y+65568D01*
X+1516960Y+116368D02*
X+1516960Y+126528D01*
X+1516960Y+162088D02*
X+1516960Y+187488D01*
X+1522040Y+55408D02*
X+1522040Y+65568D01*
X+1522040Y+116368D02*
X+1522040Y+126528D01*
X+1522040Y+162088D02*
X+1522040Y+192568D01*
X+1527120Y+55408D02*
X+1527120Y+65568D01*
X+1527120Y+116368D02*
X+1527120Y+126528D01*
X+1527120Y+187488D02*
X+1527120Y+197648D01*
X+1532200Y+55408D02*
X+1532200Y+65568D01*
X+1532200Y+116368D02*
X+1532200Y+126528D01*
X+1532200Y+192568D02*
X+1532200Y+202728D01*
X+1537280Y+55408D02*
X+1537280Y+65568D01*
X+1537280Y+116368D02*
X+1537280Y+126528D01*
X+1537280Y+192568D02*
X+1537280Y+202728D01*
X+1542360Y+55408D02*
X+1542360Y+65568D01*
X+1542360Y+116368D02*
X+1542360Y+126528D01*
X+1542360Y+192568D02*
X+1542360Y+202728D01*
X+1547440Y+55408D02*
X+1547440Y+65568D01*
X+1547440Y+116368D02*
X+1547440Y+126528D01*
X+1547440Y+141768D02*
X+1547440Y+151928D01*
X+1547440Y+192568D02*
X+1547440Y+202728D01*
X+1552520Y+60488D02*
X+1552520Y+70648D01*
X+1552520Y+111288D02*
X+1552520Y+121448D01*
X+1552520Y+141768D02*
X+1552520Y+157008D01*
X+1552520Y+187488D02*
X+1552520Y+202728D01*
X+1557600Y+60488D02*
X+1557600Y+75728D01*
X+1557600Y+106208D02*
X+1557600Y+121448D01*
X+1557600Y+146848D02*
X+1557600Y+157008D01*
X+1557600Y+182408D02*
X+1557600Y+197648D01*
X+1562680Y+65568D02*
X+1562680Y+116368D01*
X+1562680Y+151928D02*
X+1562680Y+192568D01*
X+1567760Y+75728D02*
X+1567760Y+106208D01*
X+1567760Y+157008D02*
X+1567760Y+182408D01*
D19*
X-3627000Y-123000D02*
X-3627000Y+4000D01*
X-3500000Y+131000D02*
X-3502436Y+156876D01*
X-3509485Y+180848D01*
X-3520762Y+202438D01*
X-3535878Y+221170D01*
X-3554446Y+236569D01*
X-3576081Y+248158D01*
X-3600394Y+255460D01*
X-3627000Y+258000D01*
X-3500000Y+131000D02*
X-3502436Y+104394D01*
X-3509485Y+80081D01*
X-3520762Y+58446D01*
X-3535878Y+39878D01*
X-3554446Y+24762D01*
X-3576081Y+13485D01*
X-3600394Y+6436D01*
X-3627000Y+4000D01*
X-3627000Y+258000D02*
X-3627000Y+385000D01*
X-1595000Y-123000D02*
X-1595000Y+385000D01*
X-3627000Y-123000D02*
X-1595000Y-123000D01*
X-1595000Y+385000D02*
X-3627000Y+385000D01*
D70*
X-3768600Y+55408D02*
X-3768600Y+65568D01*
X-3768600Y+116368D02*
X-3768600Y+126528D01*
X-3768600Y+182408D02*
X-3768600Y+192568D01*
X-3763520Y+55408D02*
X-3763520Y+65568D01*
X-3763520Y+116368D02*
X-3763520Y+126528D01*
X-3763520Y+177328D02*
X-3763520Y+192568D01*
X-3758440Y+55408D02*
X-3758440Y+65568D01*
X-3758440Y+116368D02*
X-3758440Y+126528D01*
X-3758440Y+172248D02*
X-3758440Y+192568D01*
X-3753360Y+55408D02*
X-3753360Y+65568D01*
X-3753360Y+116368D02*
X-3753360Y+126528D01*
X-3753360Y+172248D02*
X-3753360Y+192568D01*
X-3748280Y+55408D02*
X-3748280Y+65568D01*
X-3748280Y+116368D02*
X-3748280Y+126528D01*
X-3748280Y+167168D02*
X-3748280Y+177328D01*
X-3748280Y+182408D02*
X-3748280Y+192568D01*
X-3743200Y+55408D02*
X-3743200Y+65568D01*
X-3743200Y+116368D02*
X-3743200Y+126528D01*
X-3743200Y+162088D02*
X-3743200Y+177328D01*
X-3743200Y+182408D02*
X-3743200Y+192568D01*
X-3738120Y+55408D02*
X-3738120Y+65568D01*
X-3738120Y+116368D02*
X-3738120Y+126528D01*
X-3738120Y+162088D02*
X-3738120Y+172248D01*
X-3738120Y+182408D02*
X-3738120Y+192568D01*
X-3733040Y+55408D02*
X-3733040Y+65568D01*
X-3733040Y+116368D02*
X-3733040Y+126528D01*
X-3733040Y+157008D02*
X-3733040Y+167168D01*
X-3733040Y+182408D02*
X-3733040Y+192568D01*
X-3727960Y+55408D02*
X-3727960Y+65568D01*
X-3727960Y+116368D02*
X-3727960Y+126528D01*
X-3727960Y+151928D02*
X-3727960Y+167168D01*
X-3727960Y+182408D02*
X-3727960Y+192568D01*
X-3722880Y+55408D02*
X-3722880Y+65568D01*
X-3722880Y+116368D02*
X-3722880Y+126528D01*
X-3722880Y+151928D02*
X-3722880Y+162088D01*
X-3722880Y+182408D02*
X-3722880Y+192568D01*
X-3717800Y+55408D02*
X-3717800Y+65568D01*
X-3717800Y+116368D02*
X-3717800Y+126528D01*
X-3717800Y+146848D02*
X-3717800Y+157008D01*
X-3717800Y+182408D02*
X-3717800Y+192568D01*
X-3712720Y+55408D02*
X-3712720Y+65568D01*
X-3712720Y+116368D02*
X-3712720Y+126528D01*
X-3712720Y+141768D02*
X-3712720Y+157008D01*
X-3712720Y+182408D02*
X-3712720Y+192568D01*
X-3707640Y+55408D02*
X-3707640Y+65568D01*
X-3707640Y+116368D02*
X-3707640Y+126528D01*
X-3707640Y+141768D02*
X-3707640Y+202728D01*
X-3702560Y+55408D02*
X-3702560Y+65568D01*
X-3702560Y+116368D02*
X-3702560Y+126528D01*
X-3702560Y+141768D02*
X-3702560Y+202728D01*
X-3697480Y+60488D02*
X-3697480Y+70648D01*
X-3697480Y+111288D02*
X-3697480Y+121448D01*
X-3697480Y+182408D02*
X-3697480Y+192568D01*
X-3692400Y+60488D02*
X-3692400Y+75728D01*
X-3692400Y+106208D02*
X-3692400Y+121448D01*
X-3692400Y+182408D02*
X-3692400Y+192568D01*
X-3687320Y+65568D02*
X-3687320Y+116368D01*
X-3687320Y+182408D02*
X-3687320Y+192568D01*
X-3682240Y+75728D02*
X-3682240Y+106208D01*
X-3682240Y+182408D02*
X-3682240Y+192568D01*
D19*
X+873000Y-1373000D02*
X+873000Y-1246000D01*
X+1000000Y-1119000D02*
X+997564Y-1093124D01*
X+990515Y-1069152D01*
X+979238Y-1047562D01*
X+964122Y-1028830D01*
X+945554Y-1013431D01*
X+923919Y-1001842D01*
X+899606Y-994540D01*
X+873000Y-992000D01*
X+1000000Y-1119000D02*
X+997564Y-1145606D01*
X+990515Y-1169919D01*
X+979238Y-1191554D01*
X+964122Y-1210122D01*
X+945554Y-1225238D01*
X+923919Y-1236515D01*
X+899606Y-1243564D01*
X+873000Y-1246000D01*
X+873000Y-992000D02*
X+873000Y-865000D01*
X+2905000Y-1373000D02*
X+2905000Y-865000D01*
X+873000Y-1373000D02*
X+2905000Y-1373000D01*
X+2905000Y-865000D02*
X+873000Y-865000D01*
D70*
X+731400Y-1194592D02*
X+731400Y-1184432D01*
X+731400Y-1133632D02*
X+731400Y-1123472D01*
X+731400Y-1077752D02*
X+731400Y-1067592D01*
X+736480Y-1194592D02*
X+736480Y-1184432D01*
X+736480Y-1133632D02*
X+736480Y-1123472D01*
X+736480Y-1077752D02*
X+736480Y-1067592D01*
X+741560Y-1194592D02*
X+741560Y-1184432D01*
X+741560Y-1133632D02*
X+741560Y-1123472D01*
X+741560Y-1087912D02*
X+741560Y-1067592D01*
X+746640Y-1194592D02*
X+746640Y-1184432D01*
X+746640Y-1133632D02*
X+746640Y-1123472D01*
X+746640Y-1092992D02*
X+746640Y-1067592D01*
X+751720Y-1194592D02*
X+751720Y-1184432D01*
X+751720Y-1133632D02*
X+751720Y-1123472D01*
X+751720Y-1103152D02*
X+751720Y-1082832D01*
X+751720Y-1077752D02*
X+751720Y-1067592D01*
X+756800Y-1194592D02*
X+756800Y-1184432D01*
X+756800Y-1133632D02*
X+756800Y-1123472D01*
X+756800Y-1103152D02*
X+756800Y-1087912D01*
X+756800Y-1077752D02*
X+756800Y-1067592D01*
X+761880Y-1194592D02*
X+761880Y-1184432D01*
X+761880Y-1133632D02*
X+761880Y-1123472D01*
X+761880Y-1077752D02*
X+761880Y-1067592D01*
X+766960Y-1194592D02*
X+766960Y-1184432D01*
X+766960Y-1133632D02*
X+766960Y-1123472D01*
X+766960Y-1077752D02*
X+766960Y-1067592D01*
X+772040Y-1194592D02*
X+772040Y-1184432D01*
X+772040Y-1133632D02*
X+772040Y-1123472D01*
X+772040Y-1077752D02*
X+772040Y-1067592D01*
X+777120Y-1194592D02*
X+777120Y-1184432D01*
X+777120Y-1133632D02*
X+777120Y-1123472D01*
X+777120Y-1077752D02*
X+777120Y-1067592D01*
X+782200Y-1194592D02*
X+782200Y-1184432D01*
X+782200Y-1133632D02*
X+782200Y-1123472D01*
X+782200Y-1077752D02*
X+782200Y-1067592D01*
X+787280Y-1194592D02*
X+787280Y-1184432D01*
X+787280Y-1133632D02*
X+787280Y-1123472D01*
X+787280Y-1077752D02*
X+787280Y-1067592D01*
X+792360Y-1194592D02*
X+792360Y-1184432D01*
X+792360Y-1133632D02*
X+792360Y-1123472D01*
X+792360Y-1077752D02*
X+792360Y-1067592D01*
X+797440Y-1194592D02*
X+797440Y-1184432D01*
X+797440Y-1133632D02*
X+797440Y-1123472D01*
X+797440Y-1077752D02*
X+797440Y-1067592D01*
X+802520Y-1189512D02*
X+802520Y-1179352D01*
X+802520Y-1138712D02*
X+802520Y-1128552D01*
X+802520Y-1077752D02*
X+802520Y-1067592D01*
X+807600Y-1189512D02*
X+807600Y-1174272D01*
X+807600Y-1143792D02*
X+807600Y-1128552D01*
X+807600Y-1077752D02*
X+807600Y-1067592D01*
X+812680Y-1184432D02*
X+812680Y-1133632D01*
X+812680Y-1077752D02*
X+812680Y-1067592D01*
X+817760Y-1174272D02*
X+817760Y-1143792D01*
X+817760Y-1077752D02*
X+817760Y-1067592D01*
D19*
X-2627000Y-1373000D02*
X-2627000Y-1246000D01*
X-2500000Y-1119000D02*
X-2502436Y-1093124D01*
X-2509485Y-1069152D01*
X-2520762Y-1047562D01*
X-2535878Y-1028830D01*
X-2554446Y-1013431D01*
X-2576081Y-1001842D01*
X-2600394Y-994540D01*
X-2627000Y-992000D01*
X-2500000Y-1119000D02*
X-2502436Y-1145606D01*
X-2509485Y-1169919D01*
X-2520762Y-1191554D01*
X-2535878Y-1210122D01*
X-2554446Y-1225238D01*
X-2576081Y-1236515D01*
X-2600394Y-1243564D01*
X-2627000Y-1246000D01*
X-2627000Y-992000D02*
X-2627000Y-865000D01*
X-595000Y-1373000D02*
X-595000Y-865000D01*
X-2627000Y-1373000D02*
X-595000Y-1373000D01*
X-595000Y-865000D02*
X-2627000Y-865000D01*
D70*
X-2768600Y-1194592D02*
X-2768600Y-1184432D01*
X-2768600Y-1133632D02*
X-2768600Y-1123472D01*
X-2768600Y-1092992D02*
X-2768600Y-1062512D01*
X-2763520Y-1194592D02*
X-2763520Y-1184432D01*
X-2763520Y-1133632D02*
X-2763520Y-1123472D01*
X-2763520Y-1098072D02*
X-2763520Y-1057432D01*
X-2758440Y-1194592D02*
X-2758440Y-1184432D01*
X-2758440Y-1133632D02*
X-2758440Y-1123472D01*
X-2758440Y-1103152D02*
X-2758440Y-1087912D01*
X-2758440Y-1067592D02*
X-2758440Y-1052352D01*
X-2753360Y-1194592D02*
X-2753360Y-1184432D01*
X-2753360Y-1133632D02*
X-2753360Y-1123472D01*
X-2753360Y-1108232D02*
X-2753360Y-1098072D01*
X-2753360Y-1062512D02*
X-2753360Y-1047272D01*
X-2748280Y-1194592D02*
X-2748280Y-1184432D01*
X-2748280Y-1133632D02*
X-2748280Y-1123472D01*
X-2748280Y-1108232D02*
X-2748280Y-1098072D01*
X-2748280Y-1057432D02*
X-2748280Y-1047272D01*
X-2743200Y-1194592D02*
X-2743200Y-1184432D01*
X-2743200Y-1133632D02*
X-2743200Y-1123472D01*
X-2743200Y-1057432D02*
X-2743200Y-1047272D01*
X-2738120Y-1194592D02*
X-2738120Y-1184432D01*
X-2738120Y-1133632D02*
X-2738120Y-1123472D01*
X-2738120Y-1057432D02*
X-2738120Y-1047272D01*
X-2733040Y-1194592D02*
X-2733040Y-1184432D01*
X-2733040Y-1133632D02*
X-2733040Y-1123472D01*
X-2733040Y-1062512D02*
X-2733040Y-1052352D01*
X-2727960Y-1194592D02*
X-2727960Y-1184432D01*
X-2727960Y-1133632D02*
X-2727960Y-1123472D01*
X-2727960Y-1062512D02*
X-2727960Y-1052352D01*
X-2722880Y-1194592D02*
X-2722880Y-1184432D01*
X-2722880Y-1133632D02*
X-2722880Y-1123472D01*
X-2722880Y-1067592D02*
X-2722880Y-1057432D01*
X-2717800Y-1194592D02*
X-2717800Y-1184432D01*
X-2717800Y-1133632D02*
X-2717800Y-1123472D01*
X-2717800Y-1072672D02*
X-2717800Y-1062512D01*
X-2712720Y-1194592D02*
X-2712720Y-1184432D01*
X-2712720Y-1133632D02*
X-2712720Y-1123472D01*
X-2712720Y-1077752D02*
X-2712720Y-1067592D01*
X-2707640Y-1194592D02*
X-2707640Y-1184432D01*
X-2707640Y-1133632D02*
X-2707640Y-1123472D01*
X-2707640Y-1087912D02*
X-2707640Y-1072672D01*
X-2702560Y-1194592D02*
X-2702560Y-1184432D01*
X-2702560Y-1133632D02*
X-2702560Y-1123472D01*
X-2702560Y-1092992D02*
X-2702560Y-1077752D01*
X-2697480Y-1189512D02*
X-2697480Y-1179352D01*
X-2697480Y-1138712D02*
X-2697480Y-1128552D01*
X-2697480Y-1098072D02*
X-2697480Y-1087912D01*
X-2692400Y-1189512D02*
X-2692400Y-1174272D01*
X-2692400Y-1143792D02*
X-2692400Y-1128552D01*
X-2692400Y-1103152D02*
X-2692400Y-1092992D01*
X-2687320Y-1184432D02*
X-2687320Y-1133632D01*
X-2687320Y-1108232D02*
X-2687320Y-1047272D01*
X-2682240Y-1174272D02*
X-2682240Y-1143792D01*
X-2682240Y-1108232D02*
X-2682240Y-1047272D01*
D19*
X-1877000Y-1992000D02*
X-1877000Y-1865000D01*
X-1877000Y-2373000D02*
X-1877000Y-2246000D01*
X-1750000Y-2119000D02*
X-1752436Y-2093124D01*
X-1759485Y-2069152D01*
X-1770762Y-2047562D01*
X-1785878Y-2028830D01*
X-1804446Y-2013431D01*
X-1826081Y-2001842D01*
X-1850394Y-1994540D01*
X-1877000Y-1992000D01*
X-1750000Y-2119000D02*
X-1752436Y-2145606D01*
X-1759485Y-2169919D01*
X-1770762Y-2191554D01*
X-1785878Y-2210122D01*
X-1804446Y-2225238D01*
X-1826081Y-2236515D01*
X-1850394Y-2243564D01*
X-1877000Y-2246000D01*
X-1877000Y-2373000D02*
X-99000Y-2373000D01*
X-99000Y-1865000D01*
X-1877000Y-1865000D01*
D70*
X-2018600Y-2194592D02*
X-2018600Y-2184432D01*
X-2018600Y-2133632D02*
X-2018600Y-2123472D01*
X-2018600Y-2098072D02*
X-2018600Y-2052352D01*
X-2013520Y-2194592D02*
X-2013520Y-2184432D01*
X-2013520Y-2133632D02*
X-2013520Y-2123472D01*
X-2013520Y-2098072D02*
X-2013520Y-2052352D01*
X-2008440Y-2194592D02*
X-2008440Y-2184432D01*
X-2008440Y-2133632D02*
X-2008440Y-2123472D01*
X-2008440Y-2103152D02*
X-2008440Y-2092992D01*
X-2003360Y-2194592D02*
X-2003360Y-2184432D01*
X-2003360Y-2133632D02*
X-2003360Y-2123472D01*
X-2003360Y-2103152D02*
X-2003360Y-2092992D01*
X-1998280Y-2194592D02*
X-1998280Y-2184432D01*
X-1998280Y-2133632D02*
X-1998280Y-2123472D01*
X-1998280Y-2103152D02*
X-1998280Y-2092992D01*
X-1993200Y-2194592D02*
X-1993200Y-2184432D01*
X-1993200Y-2133632D02*
X-1993200Y-2123472D01*
X-1993200Y-2103152D02*
X-1993200Y-2092992D01*
X-1988120Y-2194592D02*
X-1988120Y-2184432D01*
X-1988120Y-2133632D02*
X-1988120Y-2123472D01*
X-1988120Y-2103152D02*
X-1988120Y-2092992D01*
X-1988120Y-2087912D02*
X-1988120Y-2062512D01*
X-1983040Y-2194592D02*
X-1983040Y-2184432D01*
X-1983040Y-2133632D02*
X-1983040Y-2123472D01*
X-1983040Y-2108232D02*
X-1983040Y-2057432D01*
X-1977960Y-2194592D02*
X-1977960Y-2184432D01*
X-1977960Y-2133632D02*
X-1977960Y-2123472D01*
X-1977960Y-2108232D02*
X-1977960Y-2092992D01*
X-1977960Y-2062512D02*
X-1977960Y-2052352D01*
X-1972880Y-2194592D02*
X-1972880Y-2184432D01*
X-1972880Y-2133632D02*
X-1972880Y-2123472D01*
X-1972880Y-2062512D02*
X-1972880Y-2047272D01*
X-1967800Y-2194592D02*
X-1967800Y-2184432D01*
X-1967800Y-2133632D02*
X-1967800Y-2123472D01*
X-1967800Y-2057432D02*
X-1967800Y-2047272D01*
X-1962720Y-2194592D02*
X-1962720Y-2184432D01*
X-1962720Y-2133632D02*
X-1962720Y-2123472D01*
X-1962720Y-2057432D02*
X-1962720Y-2047272D01*
X-1957640Y-2194592D02*
X-1957640Y-2184432D01*
X-1957640Y-2133632D02*
X-1957640Y-2123472D01*
X-1957640Y-2057432D02*
X-1957640Y-2047272D01*
X-1952560Y-2194592D02*
X-1952560Y-2184432D01*
X-1952560Y-2133632D02*
X-1952560Y-2123472D01*
X-1952560Y-2108232D02*
X-1952560Y-2098072D01*
X-1952560Y-2057432D02*
X-1952560Y-2047272D01*
X-1947480Y-2189512D02*
X-1947480Y-2179352D01*
X-1947480Y-2138712D02*
X-1947480Y-2128552D01*
X-1947480Y-2108232D02*
X-1947480Y-2092992D01*
X-1947480Y-2062512D02*
X-1947480Y-2052352D01*
X-1942400Y-2189512D02*
X-1942400Y-2174272D01*
X-1942400Y-2143792D02*
X-1942400Y-2128552D01*
X-1942400Y-2103152D02*
X-1942400Y-2092992D01*
X-1942400Y-2067592D02*
X-1942400Y-2052352D01*
X-1937320Y-2184432D02*
X-1937320Y-2133632D01*
X-1937320Y-2098072D02*
X-1937320Y-2057432D01*
X-1932240Y-2174272D02*
X-1932240Y-2143792D01*
X-1932240Y-2092992D02*
X-1932240Y-2067592D01*
D19*
X+123000Y-1992000D02*
X+123000Y-1865000D01*
X+123000Y-2373000D02*
X+123000Y-2246000D01*
X+250000Y-2119000D02*
X+247564Y-2093124D01*
X+240515Y-2069152D01*
X+229238Y-2047562D01*
X+214122Y-2028830D01*
X+195554Y-2013431D01*
X+173919Y-2001842D01*
X+149606Y-1994540D01*
X+123000Y-1992000D01*
X+250000Y-2119000D02*
X+247564Y-2145606D01*
X+240515Y-2169919D01*
X+229238Y-2191554D01*
X+214122Y-2210122D01*
X+195554Y-2225238D01*
X+173919Y-2236515D01*
X+149606Y-2243564D01*
X+123000Y-2246000D01*
X+123000Y-2373000D02*
X+1901000Y-2373000D01*
X+1901000Y-1865000D01*
X+123000Y-1865000D01*
D70*
X-18600Y-2194592D02*
X-18600Y-2184432D01*
X-18600Y-2133632D02*
X-18600Y-2123472D01*
X-18600Y-2087912D02*
X-18600Y-2062512D01*
X-13520Y-2194592D02*
X-13520Y-2184432D01*
X-13520Y-2133632D02*
X-13520Y-2123472D01*
X-13520Y-2092992D02*
X-13520Y-2057432D01*
X-8440Y-2194592D02*
X-8440Y-2184432D01*
X-8440Y-2133632D02*
X-8440Y-2123472D01*
X-8440Y-2098072D02*
X-8440Y-2087912D01*
X-8440Y-2067592D02*
X-8440Y-2052352D01*
X-3360Y-2194592D02*
X-3360Y-2184432D01*
X-3360Y-2133632D02*
X-3360Y-2123472D01*
X-3360Y-2103152D02*
X-3360Y-2092992D01*
X-3360Y-2062512D02*
X-3360Y-2047272D01*
X+1720Y-2194592D02*
X+1720Y-2184432D01*
X+1720Y-2133632D02*
X+1720Y-2123472D01*
X+1720Y-2103152D02*
X+1720Y-2092992D01*
X+1720Y-2057432D02*
X+1720Y-2047272D01*
X+6800Y-2194592D02*
X+6800Y-2184432D01*
X+6800Y-2133632D02*
X+6800Y-2123472D01*
X+6800Y-2108232D02*
X+6800Y-2098072D01*
X+11880Y-2194592D02*
X+11880Y-2184432D01*
X+11880Y-2133632D02*
X+11880Y-2123472D01*
X+11880Y-2108232D02*
X+11880Y-2098072D01*
X+11880Y-2087912D02*
X+11880Y-2062512D01*
X+16960Y-2194592D02*
X+16960Y-2184432D01*
X+16960Y-2133632D02*
X+16960Y-2123472D01*
X+16960Y-2108232D02*
X+16960Y-2098072D01*
X+16960Y-2092992D02*
X+16960Y-2057432D01*
X+22040Y-2194592D02*
X+22040Y-2184432D01*
X+22040Y-2133632D02*
X+22040Y-2123472D01*
X+22040Y-2108232D02*
X+22040Y-2087912D01*
X+22040Y-2067592D02*
X+22040Y-2052352D01*
X+27120Y-2194592D02*
X+27120Y-2184432D01*
X+27120Y-2133632D02*
X+27120Y-2123472D01*
X+27120Y-2108232D02*
X+27120Y-2092992D01*
X+27120Y-2062512D02*
X+27120Y-2047272D01*
X+32200Y-2194592D02*
X+32200Y-2184432D01*
X+32200Y-2133632D02*
X+32200Y-2123472D01*
X+32200Y-2108232D02*
X+32200Y-2098072D01*
X+32200Y-2057432D02*
X+32200Y-2047272D01*
X+37280Y-2194592D02*
X+37280Y-2184432D01*
X+37280Y-2133632D02*
X+37280Y-2123472D01*
X+37280Y-2108232D02*
X+37280Y-2098072D01*
X+37280Y-2057432D02*
X+37280Y-2047272D01*
X+42360Y-2194592D02*
X+42360Y-2184432D01*
X+42360Y-2133632D02*
X+42360Y-2123472D01*
X+42360Y-2108232D02*
X+42360Y-2098072D01*
X+42360Y-2057432D02*
X+42360Y-2047272D01*
X+47440Y-2194592D02*
X+47440Y-2184432D01*
X+47440Y-2133632D02*
X+47440Y-2123472D01*
X+47440Y-2108232D02*
X+47440Y-2098072D01*
X+47440Y-2057432D02*
X+47440Y-2047272D01*
X+52520Y-2189512D02*
X+52520Y-2179352D01*
X+52520Y-2138712D02*
X+52520Y-2128552D01*
X+52520Y-2103152D02*
X+52520Y-2092992D01*
X+52520Y-2062512D02*
X+52520Y-2052352D01*
X+57600Y-2189512D02*
X+57600Y-2174272D01*
X+57600Y-2143792D02*
X+57600Y-2128552D01*
X+57600Y-2103152D02*
X+57600Y-2087912D01*
X+57600Y-2067592D02*
X+57600Y-2052352D01*
X+62680Y-2184432D02*
X+62680Y-2133632D01*
X+62680Y-2098072D02*
X+62680Y-2057432D01*
X+67760Y-2174272D02*
X+67760Y-2143792D01*
X+67760Y-2087912D02*
X+67760Y-2062512D01*
D19*
X-877000Y-2992000D02*
X-877000Y-2865000D01*
X-877000Y-3373000D02*
X-877000Y-3246000D01*
X-750000Y-3119000D02*
X-752436Y-3093124D01*
X-759485Y-3069152D01*
X-770762Y-3047562D01*
X-785878Y-3028830D01*
X-804446Y-3013431D01*
X-826081Y-3001842D01*
X-850394Y-2994540D01*
X-877000Y-2992000D01*
X-750000Y-3119000D02*
X-752436Y-3145606D01*
X-759485Y-3169919D01*
X-770762Y-3191554D01*
X-785878Y-3210122D01*
X-804446Y-3225238D01*
X-826081Y-3236515D01*
X-850394Y-3243564D01*
X-877000Y-3246000D01*
X-877000Y-3373000D02*
X+901000Y-3373000D01*
X+901000Y-2865000D01*
X-877000Y-2865000D01*
D70*
X-1018600Y-3194592D02*
X-1018600Y-3184432D01*
X-1018600Y-3133632D02*
X-1018600Y-3123472D01*
X-1018600Y-3108232D02*
X-1018600Y-3047272D01*
X-1013520Y-3194592D02*
X-1013520Y-3184432D01*
X-1013520Y-3133632D02*
X-1013520Y-3123472D01*
X-1013520Y-3108232D02*
X-1013520Y-3047272D01*
X-1008440Y-3194592D02*
X-1008440Y-3184432D01*
X-1008440Y-3133632D02*
X-1008440Y-3123472D01*
X-1008440Y-3062512D02*
X-1008440Y-3052352D01*
X-1003360Y-3194592D02*
X-1003360Y-3184432D01*
X-1003360Y-3133632D02*
X-1003360Y-3123472D01*
X-1003360Y-3067592D02*
X-1003360Y-3057432D01*
X-998280Y-3194592D02*
X-998280Y-3184432D01*
X-998280Y-3133632D02*
X-998280Y-3123472D01*
X-998280Y-3067592D02*
X-998280Y-3057432D01*
X-993200Y-3194592D02*
X-993200Y-3184432D01*
X-993200Y-3133632D02*
X-993200Y-3123472D01*
X-993200Y-3072672D02*
X-993200Y-3062512D01*
X-988120Y-3194592D02*
X-988120Y-3184432D01*
X-988120Y-3133632D02*
X-988120Y-3123472D01*
X-988120Y-3072672D02*
X-988120Y-3062512D01*
X-983040Y-3194592D02*
X-983040Y-3184432D01*
X-983040Y-3133632D02*
X-983040Y-3123472D01*
X-983040Y-3077752D02*
X-983040Y-3067592D01*
X-977960Y-3194592D02*
X-977960Y-3184432D01*
X-977960Y-3133632D02*
X-977960Y-3123472D01*
X-977960Y-3077752D02*
X-977960Y-3067592D01*
X-972880Y-3194592D02*
X-972880Y-3184432D01*
X-972880Y-3133632D02*
X-972880Y-3123472D01*
X-972880Y-3082832D02*
X-972880Y-3072672D01*
X-967800Y-3194592D02*
X-967800Y-3184432D01*
X-967800Y-3133632D02*
X-967800Y-3123472D01*
X-967800Y-3082832D02*
X-967800Y-3072672D01*
X-962720Y-3194592D02*
X-962720Y-3184432D01*
X-962720Y-3133632D02*
X-962720Y-3123472D01*
X-962720Y-3087912D02*
X-962720Y-3077752D01*
X-957640Y-3194592D02*
X-957640Y-3184432D01*
X-957640Y-3133632D02*
X-957640Y-3123472D01*
X-957640Y-3087912D02*
X-957640Y-3077752D01*
X-952560Y-3194592D02*
X-952560Y-3184432D01*
X-952560Y-3133632D02*
X-952560Y-3123472D01*
X-952560Y-3087912D02*
X-952560Y-3077752D01*
X-947480Y-3189512D02*
X-947480Y-3179352D01*
X-947480Y-3138712D02*
X-947480Y-3128552D01*
X-947480Y-3092992D02*
X-947480Y-3082832D01*
X-942400Y-3189512D02*
X-942400Y-3174272D01*
X-942400Y-3143792D02*
X-942400Y-3128552D01*
X-942400Y-3092992D02*
X-942400Y-3082832D01*
X-937320Y-3184432D02*
X-937320Y-3133632D01*
X-937320Y-3092992D02*
X-937320Y-3082832D01*
X-932240Y-3174272D02*
X-932240Y-3143792D01*
X-932240Y-3092992D02*
X-932240Y-3082832D01*
D19*
X+1524000Y+2286000D02*
X+1778000Y+2286000D01*
X+1778000Y+3302000D01*
X+1524000Y+3302000D01*
X+1524000Y+2286000D01*
D70*
X+1809110Y+2426845D02*
X+1809110Y+2462405D01*
X+1809110Y+2487805D02*
X+1809110Y+2497965D01*
X+1809110Y+2543685D02*
X+1809110Y+2558925D01*
X+1809110Y+2604645D02*
X+1809110Y+2614805D01*
X+1809110Y+2630045D02*
X+1809110Y+2640205D01*
X+1809110Y+2655445D02*
X+1809110Y+2726565D01*
X+1809110Y+2762125D02*
X+1809110Y+2792605D01*
X+1809110Y+2828165D02*
X+1809110Y+2838325D01*
X+1809110Y+2889125D02*
X+1809110Y+2899285D01*
X+1809110Y+2950085D02*
X+1809110Y+2980565D01*
X+1809110Y+3011045D02*
X+1809110Y+3021205D01*
X+1809110Y+3072005D02*
X+1809110Y+3082165D01*
X+1809110Y+3102485D02*
X+1809110Y+3153285D01*
X+1814190Y+2421765D02*
X+1814190Y+2472565D01*
X+1814190Y+2487805D02*
X+1814190Y+2497965D01*
X+1814190Y+2543685D02*
X+1814190Y+2558925D01*
X+1814190Y+2599565D02*
X+1814190Y+2614805D01*
X+1814190Y+2630045D02*
X+1814190Y+2640205D01*
X+1814190Y+2655445D02*
X+1814190Y+2726565D01*
X+1814190Y+2746885D02*
X+1814190Y+2802765D01*
X+1814190Y+2828165D02*
X+1814190Y+2838325D01*
X+1814190Y+2889125D02*
X+1814190Y+2899285D01*
X+1814190Y+2945005D02*
X+1814190Y+2985645D01*
X+1814190Y+3011045D02*
X+1814190Y+3026285D01*
X+1814190Y+3072005D02*
X+1814190Y+3082165D01*
X+1814190Y+3102485D02*
X+1814190Y+3163445D01*
X+1819270Y+2416685D02*
X+1819270Y+2431925D01*
X+1819270Y+2462405D02*
X+1819270Y+2477645D01*
X+1819270Y+2492885D02*
X+1819270Y+2503045D01*
X+1819270Y+2538605D02*
X+1819270Y+2548765D01*
X+1819270Y+2553845D02*
X+1819270Y+2564005D01*
X+1819270Y+2599565D02*
X+1819270Y+2609725D01*
X+1819270Y+2630045D02*
X+1819270Y+2640205D01*
X+1819270Y+2685925D02*
X+1819270Y+2696085D01*
X+1819270Y+2741805D02*
X+1819270Y+2762125D01*
X+1819270Y+2792605D02*
X+1819270Y+2807845D01*
X+1819270Y+2828165D02*
X+1819270Y+2838325D01*
X+1819270Y+2889125D02*
X+1819270Y+2899285D01*
X+1819270Y+2939925D02*
X+1819270Y+2955165D01*
X+1819270Y+2975485D02*
X+1819270Y+2990725D01*
X+1819270Y+3011045D02*
X+1819270Y+3031365D01*
X+1819270Y+3072005D02*
X+1819270Y+3082165D01*
X+1819270Y+3102485D02*
X+1819270Y+3112645D01*
X+1819270Y+3153285D02*
X+1819270Y+3168525D01*
X+1824350Y+2411605D02*
X+1824350Y+2421765D01*
X+1824350Y+2467485D02*
X+1824350Y+2482725D01*
X+1824350Y+2492885D02*
X+1824350Y+2503045D01*
X+1824350Y+2538605D02*
X+1824350Y+2548765D01*
X+1824350Y+2553845D02*
X+1824350Y+2564005D01*
X+1824350Y+2599565D02*
X+1824350Y+2609725D01*
X+1824350Y+2630045D02*
X+1824350Y+2640205D01*
X+1824350Y+2685925D02*
X+1824350Y+2696085D01*
X+1824350Y+2736725D02*
X+1824350Y+2751965D01*
X+1824350Y+2797685D02*
X+1824350Y+2807845D01*
X+1824350Y+2828165D02*
X+1824350Y+2838325D01*
X+1824350Y+2889125D02*
X+1824350Y+2899285D01*
X+1824350Y+2934845D02*
X+1824350Y+2945005D01*
X+1824350Y+2980565D02*
X+1824350Y+2995805D01*
X+1824350Y+3011045D02*
X+1824350Y+3031365D01*
X+1824350Y+3072005D02*
X+1824350Y+3082165D01*
X+1824350Y+3102485D02*
X+1824350Y+3112645D01*
X+1824350Y+3158365D02*
X+1824350Y+3173605D01*
X+1829430Y+2411605D02*
X+1829430Y+2421765D01*
X+1829430Y+2472565D02*
X+1829430Y+2482725D01*
X+1829430Y+2492885D02*
X+1829430Y+2503045D01*
X+1829430Y+2538605D02*
X+1829430Y+2548765D01*
X+1829430Y+2553845D02*
X+1829430Y+2564005D01*
X+1829430Y+2599565D02*
X+1829430Y+2609725D01*
X+1829430Y+2630045D02*
X+1829430Y+2640205D01*
X+1829430Y+2685925D02*
X+1829430Y+2696085D01*
X+1829430Y+2736725D02*
X+1829430Y+2746885D01*
X+1829430Y+2802765D02*
X+1829430Y+2812925D01*
X+1829430Y+2828165D02*
X+1829430Y+2838325D01*
X+1829430Y+2889125D02*
X+1829430Y+2899285D01*
X+1829430Y+2934845D02*
X+1829430Y+2945005D01*
X+1829430Y+2985645D02*
X+1829430Y+2995805D01*
X+1829430Y+3011045D02*
X+1829430Y+3021205D01*
X+1829430Y+3026285D02*
X+1829430Y+3036445D01*
X+1829430Y+3072005D02*
X+1829430Y+3082165D01*
X+1829430Y+3102485D02*
X+1829430Y+3112645D01*
X+1829430Y+3163445D02*
X+1829430Y+3173605D01*
X+1834510Y+2411605D02*
X+1834510Y+2421765D01*
X+1834510Y+2497965D02*
X+1834510Y+2508125D01*
X+1834510Y+2533525D02*
X+1834510Y+2548765D01*
X+1834510Y+2553845D02*
X+1834510Y+2569085D01*
X+1834510Y+2594485D02*
X+1834510Y+2604645D01*
X+1834510Y+2630045D02*
X+1834510Y+2640205D01*
X+1834510Y+2685925D02*
X+1834510Y+2696085D01*
X+1834510Y+2736725D02*
X+1834510Y+2746885D01*
X+1834510Y+2828165D02*
X+1834510Y+2838325D01*
X+1834510Y+2889125D02*
X+1834510Y+2899285D01*
X+1834510Y+2985645D02*
X+1834510Y+2995805D01*
X+1834510Y+3011045D02*
X+1834510Y+3021205D01*
X+1834510Y+3031365D02*
X+1834510Y+3041525D01*
X+1834510Y+3072005D02*
X+1834510Y+3082165D01*
X+1834510Y+3102485D02*
X+1834510Y+3112645D01*
X+1834510Y+3168525D02*
X+1834510Y+3178685D01*
X+1839590Y+2411605D02*
X+1839590Y+2426845D01*
X+1839590Y+2497965D02*
X+1839590Y+2508125D01*
X+1839590Y+2533525D02*
X+1839590Y+2543685D01*
X+1839590Y+2558925D02*
X+1839590Y+2569085D01*
X+1839590Y+2594485D02*
X+1839590Y+2604645D01*
X+1839590Y+2630045D02*
X+1839590Y+2640205D01*
X+1839590Y+2685925D02*
X+1839590Y+2696085D01*
X+1839590Y+2731645D02*
X+1839590Y+2741805D01*
X+1839590Y+2828165D02*
X+1839590Y+2838325D01*
X+1839590Y+2889125D02*
X+1839590Y+2899285D01*
X+1839590Y+2985645D02*
X+1839590Y+2995805D01*
X+1839590Y+3011045D02*
X+1839590Y+3021205D01*
X+1839590Y+3031365D02*
X+1839590Y+3041525D01*
X+1839590Y+3072005D02*
X+1839590Y+3082165D01*
X+1839590Y+3102485D02*
X+1839590Y+3112645D01*
X+1839590Y+3168525D02*
X+1839590Y+3178685D01*
X+1844670Y+2416685D02*
X+1844670Y+2447165D01*
X+1844670Y+2497965D02*
X+1844670Y+2508125D01*
X+1844670Y+2533525D02*
X+1844670Y+2543685D01*
X+1844670Y+2558925D02*
X+1844670Y+2569085D01*
X+1844670Y+2594485D02*
X+1844670Y+2604645D01*
X+1844670Y+2630045D02*
X+1844670Y+2640205D01*
X+1844670Y+2685925D02*
X+1844670Y+2696085D01*
X+1844670Y+2731645D02*
X+1844670Y+2741805D01*
X+1844670Y+2828165D02*
X+1844670Y+2838325D01*
X+1844670Y+2889125D02*
X+1844670Y+2899285D01*
X+1844670Y+2980565D02*
X+1844670Y+2990725D01*
X+1844670Y+3011045D02*
X+1844670Y+3021205D01*
X+1844670Y+3036445D02*
X+1844670Y+3046605D01*
X+1844670Y+3072005D02*
X+1844670Y+3082165D01*
X+1844670Y+3102485D02*
X+1844670Y+3112645D01*
X+1844670Y+3168525D02*
X+1844670Y+3178685D01*
X+1849750Y+2421765D02*
X+1849750Y+2467485D01*
X+1849750Y+2497965D02*
X+1849750Y+2508125D01*
X+1849750Y+2533525D02*
X+1849750Y+2543685D01*
X+1849750Y+2558925D02*
X+1849750Y+2569085D01*
X+1849750Y+2589405D02*
X+1849750Y+2604645D01*
X+1849750Y+2630045D02*
X+1849750Y+2640205D01*
X+1849750Y+2685925D02*
X+1849750Y+2696085D01*
X+1849750Y+2731645D02*
X+1849750Y+2741805D01*
X+1849750Y+2828165D02*
X+1849750Y+2899285D01*
X+1849750Y+2980565D02*
X+1849750Y+2990725D01*
X+1849750Y+3011045D02*
X+1849750Y+3021205D01*
X+1849750Y+3041525D02*
X+1849750Y+3051685D01*
X+1849750Y+3072005D02*
X+1849750Y+3082165D01*
X+1849750Y+3102485D02*
X+1849750Y+3112645D01*
X+1849750Y+3168525D02*
X+1849750Y+3178685D01*
X+1854830Y+2437005D02*
X+1854830Y+2477645D01*
X+1854830Y+2503045D02*
X+1854830Y+2513205D01*
X+1854830Y+2528445D02*
X+1854830Y+2538605D01*
X+1854830Y+2564005D02*
X+1854830Y+2574165D01*
X+1854830Y+2589405D02*
X+1854830Y+2599565D01*
X+1854830Y+2630045D02*
X+1854830Y+2640205D01*
X+1854830Y+2685925D02*
X+1854830Y+2696085D01*
X+1854830Y+2731645D02*
X+1854830Y+2741805D01*
X+1854830Y+2828165D02*
X+1854830Y+2899285D01*
X+1854830Y+2975485D02*
X+1854830Y+2985645D01*
X+1854830Y+3011045D02*
X+1854830Y+3021205D01*
X+1854830Y+3041525D02*
X+1854830Y+3051685D01*
X+1854830Y+3072005D02*
X+1854830Y+3082165D01*
X+1854830Y+3102485D02*
X+1854830Y+3112645D01*
X+1854830Y+3168525D02*
X+1854830Y+3178685D01*
X+1859910Y+2462405D02*
X+1859910Y+2477645D01*
X+1859910Y+2503045D02*
X+1859910Y+2513205D01*
X+1859910Y+2528445D02*
X+1859910Y+2538605D01*
X+1859910Y+2564005D02*
X+1859910Y+2574165D01*
X+1859910Y+2589405D02*
X+1859910Y+2599565D01*
X+1859910Y+2630045D02*
X+1859910Y+2640205D01*
X+1859910Y+2685925D02*
X+1859910Y+2696085D01*
X+1859910Y+2731645D02*
X+1859910Y+2741805D01*
X+1859910Y+2828165D02*
X+1859910Y+2838325D01*
X+1859910Y+2889125D02*
X+1859910Y+2899285D01*
X+1859910Y+2970405D02*
X+1859910Y+2980565D01*
X+1859910Y+3011045D02*
X+1859910Y+3021205D01*
X+1859910Y+3046605D02*
X+1859910Y+3056765D01*
X+1859910Y+3072005D02*
X+1859910Y+3082165D01*
X+1859910Y+3102485D02*
X+1859910Y+3112645D01*
X+1859910Y+3168525D02*
X+1859910Y+3178685D01*
X+1864990Y+2472565D02*
X+1864990Y+2482725D01*
X+1864990Y+2503045D02*
X+1864990Y+2513205D01*
X+1864990Y+2528445D02*
X+1864990Y+2538605D01*
X+1864990Y+2564005D02*
X+1864990Y+2574165D01*
X+1864990Y+2589405D02*
X+1864990Y+2599565D01*
X+1864990Y+2630045D02*
X+1864990Y+2640205D01*
X+1864990Y+2685925D02*
X+1864990Y+2696085D01*
X+1864990Y+2731645D02*
X+1864990Y+2741805D01*
X+1864990Y+2828165D02*
X+1864990Y+2838325D01*
X+1864990Y+2889125D02*
X+1864990Y+2899285D01*
X+1864990Y+2965325D02*
X+1864990Y+2975485D01*
X+1864990Y+3011045D02*
X+1864990Y+3021205D01*
X+1864990Y+3051685D02*
X+1864990Y+3061845D01*
X+1864990Y+3072005D02*
X+1864990Y+3082165D01*
X+1864990Y+3102485D02*
X+1864990Y+3112645D01*
X+1864990Y+3168525D02*
X+1864990Y+3178685D01*
X+1870070Y+2406525D02*
X+1870070Y+2416685D01*
X+1870070Y+2472565D02*
X+1870070Y+2482725D01*
X+1870070Y+2508125D02*
X+1870070Y+2518285D01*
X+1870070Y+2523365D02*
X+1870070Y+2533525D01*
X+1870070Y+2569085D02*
X+1870070Y+2579245D01*
X+1870070Y+2584325D02*
X+1870070Y+2594485D01*
X+1870070Y+2630045D02*
X+1870070Y+2640205D01*
X+1870070Y+2685925D02*
X+1870070Y+2696085D01*
X+1870070Y+2736725D02*
X+1870070Y+2746885D01*
X+1870070Y+2802765D02*
X+1870070Y+2812925D01*
X+1870070Y+2828165D02*
X+1870070Y+2838325D01*
X+1870070Y+2889125D02*
X+1870070Y+2899285D01*
X+1870070Y+2955165D02*
X+1870070Y+2970405D01*
X+1870070Y+3011045D02*
X+1870070Y+3021205D01*
X+1870070Y+3051685D02*
X+1870070Y+3061845D01*
X+1870070Y+3072005D02*
X+1870070Y+3082165D01*
X+1870070Y+3102485D02*
X+1870070Y+3112645D01*
X+1870070Y+3163445D02*
X+1870070Y+3178685D01*
X+1875150Y+2406525D02*
X+1875150Y+2416685D01*
X+1875150Y+2472565D02*
X+1875150Y+2482725D01*
X+1875150Y+2508125D02*
X+1875150Y+2518285D01*
X+1875150Y+2523365D02*
X+1875150Y+2533525D01*
X+1875150Y+2569085D02*
X+1875150Y+2579245D01*
X+1875150Y+2584325D02*
X+1875150Y+2594485D01*
X+1875150Y+2630045D02*
X+1875150Y+2640205D01*
X+1875150Y+2685925D02*
X+1875150Y+2696085D01*
X+1875150Y+2736725D02*
X+1875150Y+2746885D01*
X+1875150Y+2797685D02*
X+1875150Y+2812925D01*
X+1875150Y+2828165D02*
X+1875150Y+2838325D01*
X+1875150Y+2889125D02*
X+1875150Y+2899285D01*
X+1875150Y+2950085D02*
X+1875150Y+2965325D01*
X+1875150Y+3011045D02*
X+1875150Y+3021205D01*
X+1875150Y+3056765D02*
X+1875150Y+3066925D01*
X+1875150Y+3072005D02*
X+1875150Y+3082165D01*
X+1875150Y+3102485D02*
X+1875150Y+3112645D01*
X+1875150Y+3163445D02*
X+1875150Y+3173605D01*
X+1880230Y+2411605D02*
X+1880230Y+2421765D01*
X+1880230Y+2467485D02*
X+1880230Y+2482725D01*
X+1880230Y+2508125D02*
X+1880230Y+2518285D01*
X+1880230Y+2523365D02*
X+1880230Y+2533525D01*
X+1880230Y+2569085D02*
X+1880230Y+2579245D01*
X+1880230Y+2584325D02*
X+1880230Y+2594485D01*
X+1880230Y+2630045D02*
X+1880230Y+2640205D01*
X+1880230Y+2685925D02*
X+1880230Y+2696085D01*
X+1880230Y+2736725D02*
X+1880230Y+2751965D01*
X+1880230Y+2792605D02*
X+1880230Y+2807845D01*
X+1880230Y+2828165D02*
X+1880230Y+2838325D01*
X+1880230Y+2889125D02*
X+1880230Y+2899285D01*
X+1880230Y+2945005D02*
X+1880230Y+2955165D01*
X+1880230Y+3011045D02*
X+1880230Y+3021205D01*
X+1880230Y+3061845D02*
X+1880230Y+3082165D01*
X+1880230Y+3102485D02*
X+1880230Y+3112645D01*
X+1880230Y+3158365D02*
X+1880230Y+3173605D01*
X+1885310Y+2411605D02*
X+1885310Y+2431925D01*
X+1885310Y+2462405D02*
X+1885310Y+2477645D01*
X+1885310Y+2508125D02*
X+1885310Y+2533525D01*
X+1885310Y+2569085D02*
X+1885310Y+2594485D01*
X+1885310Y+2630045D02*
X+1885310Y+2640205D01*
X+1885310Y+2685925D02*
X+1885310Y+2696085D01*
X+1885310Y+2741805D02*
X+1885310Y+2762125D01*
X+1885310Y+2787525D02*
X+1885310Y+2802765D01*
X+1885310Y+2828165D02*
X+1885310Y+2838325D01*
X+1885310Y+2889125D02*
X+1885310Y+2899285D01*
X+1885310Y+2939925D02*
X+1885310Y+2950085D01*
X+1885310Y+3011045D02*
X+1885310Y+3021205D01*
X+1885310Y+3061845D02*
X+1885310Y+3082165D01*
X+1885310Y+3102485D02*
X+1885310Y+3112645D01*
X+1885310Y+3153285D02*
X+1885310Y+3168525D01*
X+1890390Y+2416685D02*
X+1890390Y+2472565D01*
X+1890390Y+2513205D02*
X+1890390Y+2528445D01*
X+1890390Y+2574165D02*
X+1890390Y+2589405D01*
X+1890390Y+2630045D02*
X+1890390Y+2640205D01*
X+1890390Y+2685925D02*
X+1890390Y+2696085D01*
X+1890390Y+2746885D02*
X+1890390Y+2797685D01*
X+1890390Y+2828165D02*
X+1890390Y+2838325D01*
X+1890390Y+2889125D02*
X+1890390Y+2899285D01*
X+1890390Y+2934845D02*
X+1890390Y+2995805D01*
X+1890390Y+3011045D02*
X+1890390Y+3021205D01*
X+1890390Y+3066925D02*
X+1890390Y+3082165D01*
X+1890390Y+3102485D02*
X+1890390Y+3163445D01*
X+1895470Y+2426845D02*
X+1895470Y+2462405D01*
X+1895470Y+2513205D02*
X+1895470Y+2528445D01*
X+1895470Y+2574165D02*
X+1895470Y+2589405D01*
X+1895470Y+2630045D02*
X+1895470Y+2640205D01*
X+1895470Y+2685925D02*
X+1895470Y+2696085D01*
X+1895470Y+2757045D02*
X+1895470Y+2787525D01*
X+1895470Y+2828165D02*
X+1895470Y+2838325D01*
X+1895470Y+2889125D02*
X+1895470Y+2899285D01*
X+1895470Y+2934845D02*
X+1895470Y+2995805D01*
X+1895470Y+3011045D02*
X+1895470Y+3021205D01*
X+1895470Y+3072005D02*
X+1895470Y+3082165D01*
X+1895470Y+3102485D02*
X+1895470Y+3153285D01*
D19*
X-1440984Y+2500000D02*
X-1442671Y+2543400D01*
X-1456358Y+2630201D01*
X-1484821Y+2717002D01*
X-1530742Y+2803803D01*
X-1600091Y+2890604D01*
X-1686837Y+2963064D01*
X-1773638Y+3011135D01*
X-1860439Y+3041315D01*
X-1947240Y+3056521D01*
X-2000000Y+3059016D01*
X-2559016Y+2500000D02*
X-2557329Y+2543400D01*
X-2543642Y+2630201D01*
X-2515179Y+2717002D01*
X-2469258Y+2803803D01*
X-2399909Y+2890604D01*
X-2313163Y+2963064D01*
X-2226362Y+3011135D01*
X-2139561Y+3041315D01*
X-2052760Y+3056521D01*
X-2000000Y+3059016D01*
X-2559016Y+2500000D02*
X-2557329Y+2456600D01*
X-2543642Y+2369799D01*
X-2515179Y+2282998D01*
X-2469258Y+2196197D01*
X-2399909Y+2109396D01*
X-2313163Y+2036936D01*
X-2226362Y+1988865D01*
X-2139561Y+1958685D01*
X-2052760Y+1943479D01*
X-2000000Y+1940984D01*
X-1440984Y+2500000D02*
X-1442671Y+2456600D01*
X-1456358Y+2369799D01*
X-1484821Y+2282998D01*
X-1530742Y+2196197D01*
X-1600091Y+2109396D01*
X-1686837Y+2036936D01*
X-1773638Y+1988865D01*
X-1860439Y+1958685D01*
X-1947240Y+1943479D01*
X-2000000Y+1940984D01*
D70*
X-2165123Y+3100286D02*
X-2154963Y+3100286D01*
X-2058443Y+3100286D02*
X-2027963Y+3100286D01*
X-1972083Y+3100286D02*
X-1936523Y+3100286D01*
X-1900963Y+3100286D02*
X-1890803Y+3100286D01*
X-1840003Y+3100286D02*
X-1829843Y+3100286D01*
X-2165123Y+3105366D02*
X-2154963Y+3105366D01*
X-2068603Y+3105366D02*
X-2017803Y+3105366D01*
X-1982243Y+3105366D02*
X-1926363Y+3105366D01*
X-1900963Y+3105366D02*
X-1890803Y+3105366D01*
X-1840003Y+3105366D02*
X-1829843Y+3105366D01*
X-2165123Y+3110446D02*
X-2154963Y+3110446D01*
X-2073683Y+3110446D02*
X-2058443Y+3110446D01*
X-2027963Y+3110446D02*
X-2012723Y+3110446D01*
X-1987323Y+3110446D02*
X-1967003Y+3110446D01*
X-1936523Y+3110446D02*
X-1921283Y+3110446D01*
X-1900963Y+3110446D02*
X-1890803Y+3110446D01*
X-1840003Y+3110446D02*
X-1829843Y+3110446D01*
X-2165123Y+3115526D02*
X-2154963Y+3115526D01*
X-2073683Y+3115526D02*
X-2063523Y+3115526D01*
X-2022883Y+3115526D02*
X-2012723Y+3115526D01*
X-1987323Y+3115526D02*
X-1977163Y+3115526D01*
X-1931443Y+3115526D02*
X-1916203Y+3115526D01*
X-1900963Y+3115526D02*
X-1890803Y+3115526D01*
X-1840003Y+3115526D02*
X-1829843Y+3115526D01*
X-2165123Y+3120606D02*
X-2154963Y+3120606D01*
X-2078763Y+3120606D02*
X-2068603Y+3120606D01*
X-2017803Y+3120606D02*
X-2007643Y+3120606D01*
X-1992403Y+3120606D02*
X-1982243Y+3120606D01*
X-1926363Y+3120606D02*
X-1916203Y+3120606D01*
X-1900963Y+3120606D02*
X-1890803Y+3120606D01*
X-1840003Y+3120606D02*
X-1829843Y+3120606D01*
X-2165123Y+3125686D02*
X-2154963Y+3125686D01*
X-2078763Y+3125686D02*
X-2068603Y+3125686D01*
X-2017803Y+3125686D02*
X-2007643Y+3125686D01*
X-1992403Y+3125686D02*
X-1982243Y+3125686D01*
X-1926363Y+3125686D02*
X-1916203Y+3125686D01*
X-1900963Y+3125686D02*
X-1890803Y+3125686D01*
X-1840003Y+3125686D02*
X-1829843Y+3125686D01*
X-2165123Y+3130766D02*
X-2154963Y+3130766D01*
X-2078763Y+3130766D02*
X-2068603Y+3130766D01*
X-2017803Y+3130766D02*
X-2007643Y+3130766D01*
X-1926363Y+3130766D02*
X-1916203Y+3130766D01*
X-1900963Y+3130766D02*
X-1890803Y+3130766D01*
X-1840003Y+3130766D02*
X-1829843Y+3130766D01*
X-2165123Y+3135846D02*
X-2109243Y+3135846D01*
X-2078763Y+3135846D02*
X-2068603Y+3135846D01*
X-2017803Y+3135846D02*
X-2007643Y+3135846D01*
X-1936523Y+3135846D02*
X-1921283Y+3135846D01*
X-1900963Y+3135846D02*
X-1890803Y+3135846D01*
X-1840003Y+3135846D02*
X-1829843Y+3135846D01*
X-2165123Y+3140926D02*
X-2104163Y+3140926D01*
X-2078763Y+3140926D02*
X-2068603Y+3140926D01*
X-2017803Y+3140926D02*
X-2007643Y+3140926D01*
X-1961923Y+3140926D02*
X-1921283Y+3140926D01*
X-1900963Y+3140926D02*
X-1829843Y+3140926D01*
X-2165123Y+3146006D02*
X-2154963Y+3146006D01*
X-2114323Y+3146006D02*
X-2099083Y+3146006D01*
X-2078763Y+3146006D02*
X-2068603Y+3146006D01*
X-2017803Y+3146006D02*
X-2007643Y+3146006D01*
X-1977163Y+3146006D02*
X-1931443Y+3146006D01*
X-1900963Y+3146006D02*
X-1829843Y+3146006D01*
X-2165123Y+3151086D02*
X-2154963Y+3151086D01*
X-2109243Y+3151086D02*
X-2094003Y+3151086D01*
X-2078763Y+3151086D02*
X-2068603Y+3151086D01*
X-2017803Y+3151086D02*
X-2007643Y+3151086D01*
X-1982243Y+3151086D02*
X-1951763Y+3151086D01*
X-1900963Y+3151086D02*
X-1890803Y+3151086D01*
X-1840003Y+3151086D02*
X-1829843Y+3151086D01*
X-2165123Y+3156166D02*
X-2154963Y+3156166D01*
X-2104163Y+3156166D02*
X-2094003Y+3156166D01*
X-2078763Y+3156166D02*
X-2068603Y+3156166D01*
X-2017803Y+3156166D02*
X-2007643Y+3156166D01*
X-1987323Y+3156166D02*
X-1972083Y+3156166D01*
X-1900963Y+3156166D02*
X-1890803Y+3156166D01*
X-1840003Y+3156166D02*
X-1829843Y+3156166D01*
X-2165123Y+3161246D02*
X-2154963Y+3161246D01*
X-2104163Y+3161246D02*
X-2094003Y+3161246D01*
X-2078763Y+3161246D02*
X-2068603Y+3161246D01*
X-2017803Y+3161246D02*
X-2007643Y+3161246D01*
X-1987323Y+3161246D02*
X-1977163Y+3161246D01*
X-1900963Y+3161246D02*
X-1890803Y+3161246D01*
X-1840003Y+3161246D02*
X-1829843Y+3161246D01*
X-2165123Y+3166326D02*
X-2154963Y+3166326D01*
X-2104163Y+3166326D02*
X-2094003Y+3166326D01*
X-2078763Y+3166326D02*
X-2068603Y+3166326D01*
X-2017803Y+3166326D02*
X-2007643Y+3166326D01*
X-1987323Y+3166326D02*
X-1977163Y+3166326D01*
X-1926363Y+3166326D02*
X-1916203Y+3166326D01*
X-1900963Y+3166326D02*
X-1890803Y+3166326D01*
X-1840003Y+3166326D02*
X-1829843Y+3166326D01*
X-2165123Y+3171406D02*
X-2154963Y+3171406D01*
X-2109243Y+3171406D02*
X-2094003Y+3171406D01*
X-2078763Y+3171406D02*
X-2068603Y+3171406D01*
X-2017803Y+3171406D02*
X-2007643Y+3171406D01*
X-1987323Y+3171406D02*
X-1977163Y+3171406D01*
X-1931443Y+3171406D02*
X-1916203Y+3171406D01*
X-1900963Y+3171406D02*
X-1890803Y+3171406D01*
X-1840003Y+3171406D02*
X-1829843Y+3171406D01*
X-2165123Y+3176486D02*
X-2154963Y+3176486D01*
X-2114323Y+3176486D02*
X-2099083Y+3176486D01*
X-2078763Y+3176486D02*
X-2068603Y+3176486D01*
X-2017803Y+3176486D02*
X-2007643Y+3176486D01*
X-1982243Y+3176486D02*
X-1967003Y+3176486D01*
X-1936523Y+3176486D02*
X-1921283Y+3176486D01*
X-1900963Y+3176486D02*
X-1890803Y+3176486D01*
X-1840003Y+3176486D02*
X-1829843Y+3176486D01*
X-2165123Y+3181566D02*
X-2099083Y+3181566D01*
X-2078763Y+3181566D02*
X-2068603Y+3181566D01*
X-2017803Y+3181566D02*
X-2007643Y+3181566D01*
X-1977163Y+3181566D02*
X-1926363Y+3181566D01*
X-1900963Y+3181566D02*
X-1890803Y+3181566D01*
X-1840003Y+3181566D02*
X-1829843Y+3181566D01*
X-2165123Y+3186646D02*
X-2109243Y+3186646D01*
X-2078763Y+3186646D02*
X-2068603Y+3186646D01*
X-2017803Y+3186646D02*
X-2007643Y+3186646D01*
X-1967003Y+3186646D02*
X-1936523Y+3186646D01*
X-1900963Y+3186646D02*
X-1890803Y+3186646D01*
X-1840003Y+3186646D02*
X-1829843Y+3186646D01*
D19*
X+559016Y-1000000D02*
X+557329Y-956600D01*
X+543642Y-869799D01*
X+515179Y-782998D01*
X+469258Y-696197D01*
X+399909Y-609396D01*
X+313163Y-536936D01*
X+226362Y-488865D01*
X+139561Y-458685D01*
X+52760Y-443479D01*
X+0Y-440984D01*
X-559016Y-1000000D02*
X-557329Y-956600D01*
X-543642Y-869799D01*
X-515179Y-782998D01*
X-469258Y-696197D01*
X-399909Y-609396D01*
X-313163Y-536936D01*
X-226362Y-488865D01*
X-139561Y-458685D01*
X-52760Y-443479D01*
X+0Y-440984D01*
X-559016Y-1000000D02*
X-557329Y-1043400D01*
X-543642Y-1130201D01*
X-515179Y-1217002D01*
X-469258Y-1303803D01*
X-399909Y-1390604D01*
X-313163Y-1463064D01*
X-226362Y-1511135D01*
X-139561Y-1541315D01*
X-52760Y-1556521D01*
X+0Y-1559016D01*
X+559016Y-1000000D02*
X+557329Y-1043400D01*
X+543642Y-1130201D01*
X+515179Y-1217002D01*
X+469258Y-1303803D01*
X+399909Y-1390604D01*
X+313163Y-1463064D01*
X+226362Y-1511135D01*
X+139561Y-1541315D01*
X+52760Y-1556521D01*
X+0Y-1559016D01*
D70*
X-119556Y-399714D02*
X-109396Y-399714D01*
X-17956Y-399714D02*
X+17604Y-399714D01*
X+53164Y-399714D02*
X+63324Y-399714D01*
X+114124Y-399714D02*
X+124284Y-399714D01*
X-119556Y-394634D02*
X-109396Y-394634D01*
X-28116Y-394634D02*
X+27764Y-394634D01*
X+53164Y-394634D02*
X+63324Y-394634D01*
X+114124Y-394634D02*
X+124284Y-394634D01*
X-119556Y-389554D02*
X-109396Y-389554D01*
X-33196Y-389554D02*
X-12876Y-389554D01*
X+17604Y-389554D02*
X+32844Y-389554D01*
X+53164Y-389554D02*
X+63324Y-389554D01*
X+114124Y-389554D02*
X+124284Y-389554D01*
X-119556Y-384474D02*
X-109396Y-384474D01*
X-33196Y-384474D02*
X-23036Y-384474D01*
X+22684Y-384474D02*
X+37924Y-384474D01*
X+53164Y-384474D02*
X+63324Y-384474D01*
X+114124Y-384474D02*
X+124284Y-384474D01*
X-119556Y-379394D02*
X-109396Y-379394D01*
X-38276Y-379394D02*
X-28116Y-379394D01*
X+27764Y-379394D02*
X+37924Y-379394D01*
X+53164Y-379394D02*
X+63324Y-379394D01*
X+114124Y-379394D02*
X+124284Y-379394D01*
X-119556Y-374314D02*
X-109396Y-374314D01*
X-38276Y-374314D02*
X-28116Y-374314D01*
X+27764Y-374314D02*
X+37924Y-374314D01*
X+53164Y-374314D02*
X+63324Y-374314D01*
X+114124Y-374314D02*
X+124284Y-374314D01*
X-119556Y-369234D02*
X-109396Y-369234D01*
X+27764Y-369234D02*
X+37924Y-369234D01*
X+53164Y-369234D02*
X+63324Y-369234D01*
X+114124Y-369234D02*
X+124284Y-369234D01*
X-119556Y-364154D02*
X-63676Y-364154D01*
X+17604Y-364154D02*
X+32844Y-364154D01*
X+53164Y-364154D02*
X+63324Y-364154D01*
X+114124Y-364154D02*
X+124284Y-364154D01*
X-119556Y-359074D02*
X-58596Y-359074D01*
X-7796Y-359074D02*
X+32844Y-359074D01*
X+53164Y-359074D02*
X+124284Y-359074D01*
X-119556Y-353994D02*
X-109396Y-353994D01*
X-68756Y-353994D02*
X-53516Y-353994D01*
X-23036Y-353994D02*
X+22684Y-353994D01*
X+53164Y-353994D02*
X+124284Y-353994D01*
X-119556Y-348914D02*
X-109396Y-348914D01*
X-63676Y-348914D02*
X-48436Y-348914D01*
X-28116Y-348914D02*
X+2364Y-348914D01*
X+53164Y-348914D02*
X+63324Y-348914D01*
X+114124Y-348914D02*
X+124284Y-348914D01*
X-119556Y-343834D02*
X-109396Y-343834D01*
X-58596Y-343834D02*
X-48436Y-343834D01*
X-33196Y-343834D02*
X-17956Y-343834D01*
X+53164Y-343834D02*
X+63324Y-343834D01*
X+114124Y-343834D02*
X+124284Y-343834D01*
X-119556Y-338754D02*
X-109396Y-338754D01*
X-58596Y-338754D02*
X-48436Y-338754D01*
X-33196Y-338754D02*
X-23036Y-338754D01*
X+53164Y-338754D02*
X+63324Y-338754D01*
X+114124Y-338754D02*
X+124284Y-338754D01*
X-119556Y-333674D02*
X-109396Y-333674D01*
X-58596Y-333674D02*
X-48436Y-333674D01*
X-33196Y-333674D02*
X-23036Y-333674D01*
X+27764Y-333674D02*
X+37924Y-333674D01*
X+53164Y-333674D02*
X+63324Y-333674D01*
X+114124Y-333674D02*
X+124284Y-333674D01*
X-119556Y-328594D02*
X-109396Y-328594D01*
X-63676Y-328594D02*
X-48436Y-328594D01*
X-33196Y-328594D02*
X-23036Y-328594D01*
X+22684Y-328594D02*
X+37924Y-328594D01*
X+53164Y-328594D02*
X+63324Y-328594D01*
X+114124Y-328594D02*
X+124284Y-328594D01*
X-119556Y-323514D02*
X-109396Y-323514D01*
X-68756Y-323514D02*
X-53516Y-323514D01*
X-28116Y-323514D02*
X-12876Y-323514D01*
X+17604Y-323514D02*
X+32844Y-323514D01*
X+53164Y-323514D02*
X+63324Y-323514D01*
X+114124Y-323514D02*
X+124284Y-323514D01*
X-119556Y-318434D02*
X-53516Y-318434D01*
X-23036Y-318434D02*
X+27764Y-318434D01*
X+53164Y-318434D02*
X+63324Y-318434D01*
X+114124Y-318434D02*
X+124284Y-318434D01*
X-119556Y-313354D02*
X-63676Y-313354D01*
X-12876Y-313354D02*
X+17604Y-313354D01*
X+53164Y-313354D02*
X+63324Y-313354D01*
X+114124Y-313354D02*
X+124284Y-313354D01*
M02*
