G04 PROTEUS GERBER X2 FILE*
%TF.GenerationSoftware,Labcenter,Proteus,8.13-SP0-Build31525*%
%TF.CreationDate,2022-10-12T09:32:55+00:00*%
%TF.FileFunction,Plated,1,2,PTH*%
%TF.FilePolarity,Positive*%
%TF.Part,Single*%
%TF.SameCoordinates,{96deeafe-a607-4606-be7e-3443a3b47cd9}*%
%FSLAX45Y45*%
%MOMM*%
G01*
%TA.AperFunction,ViaDrill*%
%ADD37C,0.381000*%
%TA.AperFunction,ComponentDrill*%
%ADD38C,0.762000*%
%TA.AperFunction,OtherDrill,Unknown*%
%ADD39C,3.000000*%
%TA.AperFunction,ComponentDrill*%
%ADD40C,1.016000*%
%TD.AperFunction*%
D37*
X-381000Y+1587500D03*
X-1587500Y+1460500D03*
X-1079500Y-127000D03*
X-1079500Y-1270000D03*
X-1587500Y-1270000D03*
X-1587500Y-1016000D03*
X-444500Y-2222500D03*
X-825500Y-1270000D03*
X-1397000Y-2349500D03*
X-63500Y+1143000D03*
X-1460500Y+1460500D03*
X+635000Y-2032000D03*
X-190500Y-2095500D03*
D38*
X-1143000Y+1778000D03*
X-889000Y+1778000D03*
X-381000Y+1778000D03*
X-127000Y+1778000D03*
X-127000Y+3302000D03*
X-381000Y+3302000D03*
X-889000Y+3302000D03*
X-1143000Y+3302000D03*
X-635000Y+1778000D03*
X-635000Y+3302000D03*
X+127000Y+1778000D03*
X+381000Y+1778000D03*
X+889000Y+1778000D03*
X+1143000Y+1778000D03*
X+1143000Y+3302000D03*
X+889000Y+3302000D03*
X+381000Y+3302000D03*
X+127000Y+3302000D03*
X+635000Y+1778000D03*
X+635000Y+3302000D03*
X-2500000Y+1250000D03*
X-1484000Y+1250000D03*
X-2500000Y+1000000D03*
X-1484000Y+1000000D03*
X+1500000Y+1250000D03*
X+2516000Y+1250000D03*
X+1750000Y-250000D03*
X+2004000Y-250000D03*
X+2258000Y-250000D03*
X+2512000Y-250000D03*
X+2766000Y-250000D03*
X+3020000Y-250000D03*
X+3274000Y-250000D03*
X+3528000Y-250000D03*
X+3528000Y+512000D03*
X+3274000Y+512000D03*
X+3020000Y+512000D03*
X+2766000Y+512000D03*
X+2512000Y+512000D03*
X+2258000Y+512000D03*
X+2004000Y+512000D03*
X+1750000Y+512000D03*
X-3500000Y-250000D03*
X-3246000Y-250000D03*
X-2992000Y-250000D03*
X-2738000Y-250000D03*
X-2484000Y-250000D03*
X-2230000Y-250000D03*
X-1976000Y-250000D03*
X-1722000Y-250000D03*
X-1722000Y+512000D03*
X-1976000Y+512000D03*
X-2230000Y+512000D03*
X-2484000Y+512000D03*
X-2738000Y+512000D03*
X-2992000Y+512000D03*
X-3246000Y+512000D03*
X-3500000Y+512000D03*
X+1000000Y-1500000D03*
X+1254000Y-1500000D03*
X+1508000Y-1500000D03*
X+1762000Y-1500000D03*
X+2016000Y-1500000D03*
X+2270000Y-1500000D03*
X+2524000Y-1500000D03*
X+2778000Y-1500000D03*
X+2778000Y-738000D03*
X+2524000Y-738000D03*
X+2270000Y-738000D03*
X+2016000Y-738000D03*
X+1762000Y-738000D03*
X+1508000Y-738000D03*
X+1254000Y-738000D03*
X+1000000Y-738000D03*
X-2500000Y-1500000D03*
X-2246000Y-1500000D03*
X-1992000Y-1500000D03*
X-1738000Y-1500000D03*
X-1484000Y-1500000D03*
X-1230000Y-1500000D03*
X-976000Y-1500000D03*
X-722000Y-1500000D03*
X-722000Y-738000D03*
X-976000Y-738000D03*
X-1230000Y-738000D03*
X-1484000Y-738000D03*
X-1738000Y-738000D03*
X-1992000Y-738000D03*
X-2246000Y-738000D03*
X-2500000Y-738000D03*
X-1750000Y-2500000D03*
X-1496000Y-2500000D03*
X-1242000Y-2500000D03*
X-988000Y-2500000D03*
X-734000Y-2500000D03*
X-480000Y-2500000D03*
X-226000Y-2500000D03*
X-226000Y-1738000D03*
X-480000Y-1738000D03*
X-734000Y-1738000D03*
X-988000Y-1738000D03*
X-1242000Y-1738000D03*
X-1496000Y-1738000D03*
X-1750000Y-1738000D03*
X+250000Y-2500000D03*
X+504000Y-2500000D03*
X+758000Y-2500000D03*
X+1012000Y-2500000D03*
X+1266000Y-2500000D03*
X+1520000Y-2500000D03*
X+1774000Y-2500000D03*
X+1774000Y-1738000D03*
X+1520000Y-1738000D03*
X+1266000Y-1738000D03*
X+1012000Y-1738000D03*
X+758000Y-1738000D03*
X+504000Y-1738000D03*
X+250000Y-1738000D03*
X-750000Y-3500000D03*
X-496000Y-3500000D03*
X-242000Y-3500000D03*
X+12000Y-3500000D03*
X+266000Y-3500000D03*
X+520000Y-3500000D03*
X+774000Y-3500000D03*
X+774000Y-2738000D03*
X+520000Y-2738000D03*
X+266000Y-2738000D03*
X+12000Y-2738000D03*
X-242000Y-2738000D03*
X-496000Y-2738000D03*
X-750000Y-2738000D03*
D39*
X-3175000Y+1143000D03*
X-3175000Y-1143000D03*
X+3175000Y+1143000D03*
X+3175000Y-1143000D03*
D40*
X+1651000Y+2413000D03*
X+1651000Y+3175000D03*
D38*
X-1000000Y+250000D03*
X+1000000Y+250000D03*
X-2250000Y+2500000D03*
X-1750000Y+2500000D03*
X-250000Y-1000000D03*
X+250000Y-1000000D03*
M02*
