G04 PROTEUS GERBER X2 FILE*
%TF.GenerationSoftware,Labcenter,Proteus,8.13-SP0-Build31525*%
%TF.CreationDate,2022-10-12T09:32:55+00:00*%
%TF.FileFunction,Legend,Bot*%
%TF.FilePolarity,Positive*%
%TF.Part,Single*%
%TF.SameCoordinates,{96deeafe-a607-4606-be7e-3443a3b47cd9}*%
%FSLAX45Y45*%
%MOMM*%
G01*
%TA.AperFunction,Profile*%
%ADD18C,0.203110*%
%TA.AperFunction,Material*%
%ADD19C,0.203110*%
%ADD70C,0.063500*%
%TD.AperFunction*%
D18*
X+3850000Y+0D02*
X+3844096Y+213142D01*
X+3796529Y+639427D01*
X+3699562Y+1065712D01*
X+3549147Y+1491997D01*
X+3338067Y+1918282D01*
X+3053769Y+2344567D01*
X+2673870Y+2770003D01*
X+2247585Y+3125838D01*
X+1821300Y+3391956D01*
X+1395015Y+3588375D01*
X+968730Y+3726132D01*
X+542445Y+3811595D01*
X+116160Y+3848247D01*
X+0Y+3850000D01*
X-3850000Y+0D02*
X-3844096Y+213142D01*
X-3796529Y+639427D01*
X-3699562Y+1065712D01*
X-3549147Y+1491997D01*
X-3338067Y+1918282D01*
X-3053769Y+2344567D01*
X-2673870Y+2770003D01*
X-2247585Y+3125838D01*
X-1821300Y+3391956D01*
X-1395015Y+3588375D01*
X-968730Y+3726132D01*
X-542445Y+3811595D01*
X-116160Y+3848247D01*
X+0Y+3850000D01*
X-3850000Y+0D02*
X-3844096Y-213142D01*
X-3796529Y-639427D01*
X-3699562Y-1065712D01*
X-3549147Y-1491997D01*
X-3338067Y-1918282D01*
X-3053769Y-2344567D01*
X-2673870Y-2770003D01*
X-2247585Y-3125838D01*
X-1821300Y-3391956D01*
X-1395015Y-3588375D01*
X-968730Y-3726132D01*
X-542445Y-3811595D01*
X-116160Y-3848247D01*
X+0Y-3850000D01*
X+3850000Y+0D02*
X+3844096Y-213142D01*
X+3796529Y-639427D01*
X+3699562Y-1065712D01*
X+3549147Y-1491997D01*
X+3338067Y-1918282D01*
X+3053769Y-2344567D01*
X+2673870Y-2770003D01*
X+2247585Y-3125838D01*
X+1821300Y-3391956D01*
X+1395015Y-3588375D01*
X+968730Y-3726132D01*
X+542445Y-3811595D01*
X+116160Y-3848247D01*
X+0Y-3850000D01*
D19*
X+559016Y+250000D02*
X+557329Y+293400D01*
X+543642Y+380201D01*
X+515179Y+467002D01*
X+469258Y+553803D01*
X+399909Y+640604D01*
X+313163Y+713064D01*
X+226362Y+761135D01*
X+139561Y+791315D01*
X+52760Y+806521D01*
X+0Y+809016D01*
X-559016Y+250000D02*
X-557329Y+293400D01*
X-543642Y+380201D01*
X-515179Y+467002D01*
X-469258Y+553803D01*
X-399909Y+640604D01*
X-313163Y+713064D01*
X-226362Y+761135D01*
X-139561Y+791315D01*
X-52760Y+806521D01*
X+0Y+809016D01*
X-559016Y+250000D02*
X-557329Y+206600D01*
X-543642Y+119799D01*
X-515179Y+32998D01*
X-469258Y-53803D01*
X-399909Y-140604D01*
X-313163Y-213064D01*
X-226362Y-261135D01*
X-139561Y-291315D01*
X-52760Y-306521D01*
X+0Y-309016D01*
X+559016Y+250000D02*
X+557329Y+206600D01*
X+543642Y+119799D01*
X+515179Y+32998D01*
X+469258Y-53803D01*
X+399909Y-140604D01*
X+313163Y-213064D01*
X+226362Y-261135D01*
X+139561Y-291315D01*
X+52760Y-306521D01*
X+0Y-309016D01*
D70*
X-127320Y+850286D02*
X-117160Y+850286D01*
X-51120Y+850286D02*
X-40960Y+850286D01*
X-15560Y+850286D02*
X-5400Y+850286D01*
X+50480Y+850286D02*
X+60640Y+850286D01*
X+86040Y+850286D02*
X+141920Y+850286D01*
X-127320Y+855366D02*
X-117160Y+855366D01*
X-51120Y+855366D02*
X-40960Y+855366D01*
X-15560Y+855366D02*
X-5400Y+855366D01*
X+50480Y+855366D02*
X+60640Y+855366D01*
X+75880Y+855366D02*
X+141920Y+855366D01*
X-127320Y+860446D02*
X-117160Y+860446D01*
X-51120Y+860446D02*
X-40960Y+860446D01*
X-10480Y+860446D02*
X-320Y+860446D01*
X+45400Y+860446D02*
X+55560Y+860446D01*
X+75880Y+860446D02*
X+91120Y+860446D01*
X+131760Y+860446D02*
X+141920Y+860446D01*
X-127320Y+865526D02*
X-117160Y+865526D01*
X-51120Y+865526D02*
X-40960Y+865526D01*
X-10480Y+865526D02*
X-320Y+865526D01*
X+45400Y+865526D02*
X+55560Y+865526D01*
X+70800Y+865526D02*
X+80960Y+865526D01*
X+131760Y+865526D02*
X+141920Y+865526D01*
X-127320Y+870606D02*
X-117160Y+870606D01*
X-51120Y+870606D02*
X-40960Y+870606D01*
X-10480Y+870606D02*
X-320Y+870606D01*
X+45400Y+870606D02*
X+55560Y+870606D01*
X+70800Y+870606D02*
X+80960Y+870606D01*
X+131760Y+870606D02*
X+141920Y+870606D01*
X-127320Y+875686D02*
X-117160Y+875686D01*
X-51120Y+875686D02*
X-40960Y+875686D01*
X-5400Y+875686D02*
X+4760Y+875686D01*
X+40320Y+875686D02*
X+50480Y+875686D01*
X+70800Y+875686D02*
X+80960Y+875686D01*
X+131760Y+875686D02*
X+141920Y+875686D01*
X-127320Y+880766D02*
X-117160Y+880766D01*
X-51120Y+880766D02*
X-40960Y+880766D01*
X-5400Y+880766D02*
X+50480Y+880766D01*
X+70800Y+880766D02*
X+80960Y+880766D01*
X+131760Y+880766D02*
X+141920Y+880766D01*
X-127320Y+885846D02*
X-117160Y+885846D01*
X-51120Y+885846D02*
X-40960Y+885846D01*
X-5400Y+885846D02*
X+50480Y+885846D01*
X+75880Y+885846D02*
X+91120Y+885846D01*
X+131760Y+885846D02*
X+141920Y+885846D01*
X-127320Y+890926D02*
X-117160Y+890926D01*
X-51120Y+890926D02*
X-40960Y+890926D01*
X-320Y+890926D02*
X+9840Y+890926D01*
X+35240Y+890926D02*
X+45400Y+890926D01*
X+80960Y+890926D02*
X+141920Y+890926D01*
X-127320Y+896006D02*
X-117160Y+896006D01*
X-51120Y+896006D02*
X-40960Y+896006D01*
X-320Y+896006D02*
X+9840Y+896006D01*
X+35240Y+896006D02*
X+45400Y+896006D01*
X+86040Y+896006D02*
X+141920Y+896006D01*
X-127320Y+901086D02*
X-117160Y+901086D01*
X-51120Y+901086D02*
X-40960Y+901086D01*
X-320Y+901086D02*
X+14920Y+901086D01*
X+30160Y+901086D02*
X+45400Y+901086D01*
X+80960Y+901086D02*
X+91120Y+901086D01*
X+131760Y+901086D02*
X+141920Y+901086D01*
X-127320Y+906166D02*
X-117160Y+906166D01*
X-51120Y+906166D02*
X-40960Y+906166D01*
X+4760Y+906166D02*
X+14920Y+906166D01*
X+30160Y+906166D02*
X+40320Y+906166D01*
X+75880Y+906166D02*
X+86040Y+906166D01*
X+131760Y+906166D02*
X+141920Y+906166D01*
X-127320Y+911246D02*
X-117160Y+911246D01*
X-107000Y+911246D02*
X-91760Y+911246D01*
X-51120Y+911246D02*
X-40960Y+911246D01*
X+4760Y+911246D02*
X+14920Y+911246D01*
X+30160Y+911246D02*
X+40320Y+911246D01*
X+75880Y+911246D02*
X+86040Y+911246D01*
X+131760Y+911246D02*
X+141920Y+911246D01*
X-127320Y+916326D02*
X-117160Y+916326D01*
X-112080Y+916326D02*
X-91760Y+916326D01*
X-51120Y+916326D02*
X-40960Y+916326D01*
X+9840Y+916326D02*
X+20000Y+916326D01*
X+25080Y+916326D02*
X+35240Y+916326D01*
X+75880Y+916326D02*
X+86040Y+916326D01*
X+131760Y+916326D02*
X+141920Y+916326D01*
X-127320Y+921406D02*
X-101920Y+921406D01*
X-51120Y+921406D02*
X-40960Y+921406D01*
X+9840Y+921406D02*
X+20000Y+921406D01*
X+25080Y+921406D02*
X+35240Y+921406D01*
X+75880Y+921406D02*
X+86040Y+921406D01*
X+131760Y+921406D02*
X+141920Y+921406D01*
X-127320Y+926486D02*
X-107000Y+926486D01*
X-51120Y+926486D02*
X-40960Y+926486D01*
X+9840Y+926486D02*
X+20000Y+926486D01*
X+25080Y+926486D02*
X+35240Y+926486D01*
X+80960Y+926486D02*
X+91120Y+926486D01*
X+131760Y+926486D02*
X+141920Y+926486D01*
X-127320Y+931566D02*
X-117160Y+931566D01*
X-81600Y+931566D02*
X-10480Y+931566D01*
X+14920Y+931566D02*
X+30160Y+931566D01*
X+80960Y+931566D02*
X+141920Y+931566D01*
X-127320Y+936646D02*
X-117160Y+936646D01*
X-81600Y+936646D02*
X-10480Y+936646D01*
X+14920Y+936646D02*
X+30160Y+936646D01*
X+91120Y+936646D02*
X+141920Y+936646D01*
M02*
