G04 PROTEUS GERBER X2 FILE*
%TF.GenerationSoftware,Labcenter,Proteus,8.13-SP0-Build31525*%
%TF.CreationDate,2022-10-12T09:32:55+00:00*%
%TF.FileFunction,AssemblyDrawing,Top*%
%TF.FilePolarity,Positive*%
%TF.Part,Single*%
%TF.SameCoordinates,{96deeafe-a607-4606-be7e-3443a3b47cd9}*%
%FSLAX45Y45*%
%MOMM*%
G01*
%TA.AperFunction,Profile*%
%ADD18C,0.203110*%
%TA.AperFunction,Material*%
%ADD19C,0.203110*%
%ADD26C,0.609600*%
%ADD27C,0.426280*%
%ADD28C,0.555380*%
%ADD29C,0.711200*%
%ADD72C,0.110240*%
%ADD73C,0.508000*%
%ADD30C,0.507020*%
%ADD31C,0.490350*%
%ADD32C,0.812800*%
%ADD33C,0.083820*%
%ADD34C,0.257790*%
%ADD35C,0.337930*%
%TD.AperFunction*%
D18*
X+3850000Y+0D02*
X+3844096Y+213142D01*
X+3796529Y+639427D01*
X+3699562Y+1065712D01*
X+3549147Y+1491997D01*
X+3338067Y+1918282D01*
X+3053769Y+2344567D01*
X+2673870Y+2770003D01*
X+2247585Y+3125838D01*
X+1821300Y+3391956D01*
X+1395015Y+3588375D01*
X+968730Y+3726132D01*
X+542445Y+3811595D01*
X+116160Y+3848247D01*
X+0Y+3850000D01*
X-3850000Y+0D02*
X-3844096Y+213142D01*
X-3796529Y+639427D01*
X-3699562Y+1065712D01*
X-3549147Y+1491997D01*
X-3338067Y+1918282D01*
X-3053769Y+2344567D01*
X-2673870Y+2770003D01*
X-2247585Y+3125838D01*
X-1821300Y+3391956D01*
X-1395015Y+3588375D01*
X-968730Y+3726132D01*
X-542445Y+3811595D01*
X-116160Y+3848247D01*
X+0Y+3850000D01*
X-3850000Y+0D02*
X-3844096Y-213142D01*
X-3796529Y-639427D01*
X-3699562Y-1065712D01*
X-3549147Y-1491997D01*
X-3338067Y-1918282D01*
X-3053769Y-2344567D01*
X-2673870Y-2770003D01*
X-2247585Y-3125838D01*
X-1821300Y-3391956D01*
X-1395015Y-3588375D01*
X-968730Y-3726132D01*
X-542445Y-3811595D01*
X-116160Y-3848247D01*
X+0Y-3850000D01*
X+3850000Y+0D02*
X+3844096Y-213142D01*
X+3796529Y-639427D01*
X+3699562Y-1065712D01*
X+3549147Y-1491997D01*
X+3338067Y-1918282D01*
X+3053769Y-2344567D01*
X+2673870Y-2770003D01*
X+2247585Y-3125838D01*
X+1821300Y-3391956D01*
X+1395015Y-3588375D01*
X+968730Y-3726132D01*
X+542445Y-3811595D01*
X+116160Y-3848247D01*
X+0Y-3850000D01*
D19*
X-1280155Y+1517845D02*
X+155Y+1517845D01*
X+155Y+3438155D01*
X-1280155Y+3438155D01*
X-1280155Y+1517845D01*
D26*
X-1143000Y+1778000D02*
X-1143000Y+1778000D01*
D27*
X-684068Y+1758646D02*
X-684068Y+1998431D01*
X-641439Y+1998431D01*
X-428297Y+1758646D01*
X-470926Y+2094345D02*
X-428297Y+2142301D01*
X-428297Y+2334129D01*
X-470926Y+2382086D01*
X-513554Y+2382086D01*
X-556183Y+2334129D01*
X-556183Y+2142301D01*
X-598811Y+2094345D01*
X-641439Y+2094345D01*
X-684068Y+2142301D01*
X-684068Y+2334129D01*
X-641439Y+2382086D01*
X-428297Y+2765741D02*
X-428297Y+2478000D01*
X-684068Y+2478000D01*
X-684068Y+2765741D01*
X-556183Y+2478000D02*
X-556183Y+2669827D01*
X-513554Y+3053482D02*
X-513554Y+3149396D01*
X-428297Y+3149396D01*
X-428297Y+2957568D01*
X-513554Y+2861655D01*
X-598811Y+2861655D01*
X-684068Y+2957568D01*
X-684068Y+3101439D01*
X-641439Y+3149396D01*
D19*
X-10155Y+1517845D02*
X+1270155Y+1517845D01*
X+1270155Y+3438155D01*
X-10155Y+3438155D01*
X-10155Y+1517845D01*
D26*
X+127000Y+1778000D02*
X+127000Y+1778000D01*
D28*
X+658279Y+2353038D02*
X+547201Y+2478000D01*
X+880434Y+2478000D01*
D19*
X-2588900Y+1161100D02*
X-1395100Y+1161100D01*
X-1395100Y+1338900D01*
X-2588900Y+1338900D01*
X-2588900Y+1161100D01*
D29*
X-2500000Y+1250000D02*
X-2500000Y+1250000D01*
D72*
X-2028988Y+1216927D02*
X-2028988Y+1283073D01*
X-1966977Y+1283073D01*
X-1954575Y+1272049D01*
X-1954575Y+1261024D01*
X-1966977Y+1250000D01*
X-2028988Y+1250000D01*
X-1966977Y+1250000D02*
X-1954575Y+1238976D01*
X-1954575Y+1216927D01*
X-1904966Y+1261024D02*
X-1880161Y+1283073D01*
X-1880161Y+1216927D01*
D19*
X-2588900Y+911100D02*
X-1395100Y+911100D01*
X-1395100Y+1088900D01*
X-2588900Y+1088900D01*
X-2588900Y+911100D01*
D29*
X-2500000Y+1000000D02*
X-2500000Y+1000000D01*
D72*
X-2028988Y+966927D02*
X-2028988Y+1033073D01*
X-1966977Y+1033073D01*
X-1954575Y+1022049D01*
X-1954575Y+1011024D01*
X-1966977Y+1000000D01*
X-2028988Y+1000000D01*
X-1966977Y+1000000D02*
X-1954575Y+988976D01*
X-1954575Y+966927D01*
X-1917368Y+1022049D02*
X-1904966Y+1033073D01*
X-1867759Y+1033073D01*
X-1855357Y+1022049D01*
X-1855357Y+1011024D01*
X-1867759Y+1000000D01*
X-1904966Y+1000000D01*
X-1917368Y+988976D01*
X-1917368Y+966927D01*
X-1855357Y+966927D01*
D19*
X+1411100Y+1161100D02*
X+2604900Y+1161100D01*
X+2604900Y+1338900D01*
X+1411100Y+1338900D01*
X+1411100Y+1161100D01*
D29*
X+1500000Y+1250000D02*
X+1500000Y+1250000D01*
D72*
X+1971012Y+1216927D02*
X+1971012Y+1283073D01*
X+2033023Y+1283073D01*
X+2045425Y+1272049D01*
X+2045425Y+1261024D01*
X+2033023Y+1250000D01*
X+1971012Y+1250000D01*
X+2033023Y+1250000D02*
X+2045425Y+1238976D01*
X+2045425Y+1216927D01*
X+2082632Y+1272049D02*
X+2095034Y+1283073D01*
X+2132241Y+1283073D01*
X+2144643Y+1272049D01*
X+2144643Y+1261024D01*
X+2132241Y+1250000D01*
X+2144643Y+1238976D01*
X+2144643Y+1227951D01*
X+2132241Y+1216927D01*
X+2095034Y+1216927D01*
X+2082632Y+1227951D01*
X+2107436Y+1250000D02*
X+2132241Y+1250000D01*
D19*
X+1612845Y-313500D02*
X+3665155Y-313500D01*
X+3665155Y+575500D01*
X+1612845Y+575500D01*
X+1612845Y-313500D01*
D73*
X+1750000Y-250000D02*
X+1750000Y-250000D01*
D30*
X+2263954Y+283107D02*
X+2263954Y+29594D01*
X+2320994Y-21108D01*
X+2549155Y-21108D01*
X+2606196Y+29594D01*
X+2606196Y+283107D01*
X+2777317Y+232405D02*
X+2834357Y+283107D01*
X+3005478Y+283107D01*
X+3062519Y+232405D01*
X+3062519Y+181702D01*
X+3005478Y+131000D01*
X+3062519Y+80297D01*
X+3062519Y+29594D01*
X+3005478Y-21108D01*
X+2834357Y-21108D01*
X+2777317Y+29594D01*
X+2891398Y+131000D02*
X+3005478Y+131000D01*
D19*
X-3637155Y-313500D02*
X-1584845Y-313500D01*
X-1584845Y+575500D01*
X-3637155Y+575500D01*
X-3637155Y-313500D01*
D73*
X-3500000Y-250000D02*
X-3500000Y-250000D01*
D30*
X-2986046Y+283107D02*
X-2986046Y+29594D01*
X-2929006Y-21108D01*
X-2700845Y-21108D01*
X-2643804Y+29594D01*
X-2643804Y+283107D01*
X-2187481Y+80297D02*
X-2529723Y+80297D01*
X-2301562Y+283107D01*
X-2301562Y-21108D01*
D19*
X+862845Y-1563500D02*
X+2915155Y-1563500D01*
X+2915155Y-674500D01*
X+862845Y-674500D01*
X+862845Y-1563500D01*
D73*
X+1000000Y-1500000D02*
X+1000000Y-1500000D01*
D30*
X+1513954Y-966893D02*
X+1513954Y-1220406D01*
X+1570994Y-1271108D01*
X+1799155Y-1271108D01*
X+1856196Y-1220406D01*
X+1856196Y-966893D01*
X+2084357Y-1068298D02*
X+2198438Y-966893D01*
X+2198438Y-1271108D01*
D19*
X-2637155Y-1563500D02*
X-584845Y-1563500D01*
X-584845Y-674500D01*
X-2637155Y-674500D01*
X-2637155Y-1563500D01*
D73*
X-2500000Y-1500000D02*
X-2500000Y-1500000D01*
D30*
X-1986046Y-966893D02*
X-1986046Y-1220406D01*
X-1929006Y-1271108D01*
X-1700845Y-1271108D01*
X-1643804Y-1220406D01*
X-1643804Y-966893D01*
X-1472683Y-1017595D02*
X-1415643Y-966893D01*
X-1244522Y-966893D01*
X-1187481Y-1017595D01*
X-1187481Y-1068298D01*
X-1244522Y-1119000D01*
X-1415643Y-1119000D01*
X-1472683Y-1169703D01*
X-1472683Y-1271108D01*
X-1187481Y-1271108D01*
D19*
X-1887155Y-2563500D02*
X-88845Y-2563500D01*
X-88845Y-1674500D01*
X-1887155Y-1674500D01*
X-1887155Y-2563500D01*
D73*
X-1750000Y-2500000D02*
X-1750000Y-2500000D01*
D31*
X-1348046Y-1971892D02*
X-1348046Y-2217072D01*
X-1292881Y-2266108D01*
X-1072220Y-2266108D01*
X-1017054Y-2217072D01*
X-1017054Y-1971892D01*
X-575731Y-1971892D02*
X-851558Y-1971892D01*
X-851558Y-2069964D01*
X-630897Y-2069964D01*
X-575731Y-2119000D01*
X-575731Y-2217072D01*
X-630897Y-2266108D01*
X-796393Y-2266108D01*
X-851558Y-2217072D01*
D19*
X+112845Y-2563500D02*
X+1911155Y-2563500D01*
X+1911155Y-1674500D01*
X+112845Y-1674500D01*
X+112845Y-2563500D01*
D73*
X+250000Y-2500000D02*
X+250000Y-2500000D01*
D31*
X+651954Y-1971892D02*
X+651954Y-2217072D01*
X+707119Y-2266108D01*
X+927780Y-2266108D01*
X+982946Y-2217072D01*
X+982946Y-1971892D01*
X+1424269Y-2020928D02*
X+1369103Y-1971892D01*
X+1203607Y-1971892D01*
X+1148442Y-2020928D01*
X+1148442Y-2217072D01*
X+1203607Y-2266108D01*
X+1369103Y-2266108D01*
X+1424269Y-2217072D01*
X+1424269Y-2168036D01*
X+1369103Y-2119000D01*
X+1148442Y-2119000D01*
D19*
X-887155Y-3563500D02*
X+911155Y-3563500D01*
X+911155Y-2674500D01*
X-887155Y-2674500D01*
X-887155Y-3563500D01*
D73*
X-750000Y-3500000D02*
X-750000Y-3500000D01*
D31*
X-348046Y-2971892D02*
X-348046Y-3217072D01*
X-292881Y-3266108D01*
X-72220Y-3266108D01*
X-17054Y-3217072D01*
X-17054Y-2971892D01*
X+148442Y-2971892D02*
X+424269Y-2971892D01*
X+424269Y-3020928D01*
X+148442Y-3266108D01*
D19*
X+1513845Y+2275845D02*
X+1788155Y+2275845D01*
X+1788155Y+3312155D01*
X+1513845Y+3312155D01*
X+1513845Y+2275845D01*
D32*
X+1651000Y+3175000D02*
X+1651000Y+3175000D01*
D33*
X+1667764Y+2327912D02*
X+1676146Y+2337341D01*
X+1676146Y+2375060D01*
X+1667764Y+2384490D01*
X+1659382Y+2384490D01*
X+1651000Y+2375060D01*
X+1651000Y+2337341D01*
X+1642618Y+2327912D01*
X+1634236Y+2327912D01*
X+1625854Y+2337341D01*
X+1625854Y+2375060D01*
X+1634236Y+2384490D01*
X+1625854Y+2403350D02*
X+1676146Y+2403350D01*
X+1651000Y+2431639D01*
X+1676146Y+2459928D01*
X+1625854Y+2459928D01*
X+1625854Y+2488217D02*
X+1625854Y+2525936D01*
X+1625854Y+2507077D02*
X+1676146Y+2507077D01*
X+1676146Y+2488217D02*
X+1676146Y+2525936D01*
X+1625854Y+2554226D02*
X+1625854Y+2610804D01*
X+1625854Y+2582515D02*
X+1676146Y+2582515D01*
X+1667764Y+2686242D02*
X+1676146Y+2676812D01*
X+1676146Y+2648523D01*
X+1659382Y+2629664D01*
X+1642618Y+2629664D01*
X+1625854Y+2648523D01*
X+1625854Y+2676812D01*
X+1634236Y+2686242D01*
X+1676146Y+2705102D02*
X+1625854Y+2705102D01*
X+1625854Y+2761680D02*
X+1676146Y+2761680D01*
X+1651000Y+2705102D02*
X+1651000Y+2761680D01*
X+1634236Y+2865407D02*
X+1625854Y+2874837D01*
X+1625854Y+2903126D01*
X+1634236Y+2912556D01*
X+1642618Y+2912556D01*
X+1651000Y+2903126D01*
X+1651000Y+2874837D01*
X+1659382Y+2865407D01*
X+1676146Y+2865407D01*
X+1676146Y+2912556D01*
X+1676146Y+2931416D02*
X+1625854Y+2931416D01*
X+1676146Y+2987994D01*
X+1625854Y+2987994D01*
X+1676146Y+3006854D02*
X+1625854Y+3006854D01*
X+1625854Y+3044573D01*
X+1642618Y+3063432D01*
X+1659382Y+3063432D01*
X+1676146Y+3044573D01*
X+1676146Y+3006854D01*
D19*
X-2569171Y+1930829D02*
X-1430829Y+1930829D01*
X-1430829Y+3069171D01*
X-2569171Y+3069171D01*
X-2569171Y+1930829D01*
D26*
X-2250000Y+2500000D02*
X-2250000Y+2500000D01*
D34*
X-1747838Y+2035978D02*
X-1902512Y+2035978D01*
X-1902512Y+2180984D01*
X-1876733Y+2209986D01*
X-1850954Y+2209986D01*
X-1825175Y+2180984D01*
X-1825175Y+2035978D01*
X-1902512Y+2267989D02*
X-1773617Y+2267989D01*
X-1747838Y+2296990D01*
X-1747838Y+2412995D01*
X-1773617Y+2441997D01*
X-1902512Y+2441997D01*
X-1773617Y+2500000D02*
X-1747838Y+2529001D01*
X-1747838Y+2645006D01*
X-1773617Y+2674008D01*
X-1799396Y+2674008D01*
X-1825175Y+2645006D01*
X-1825175Y+2529001D01*
X-1850954Y+2500000D01*
X-1876733Y+2500000D01*
X-1902512Y+2529001D01*
X-1902512Y+2645006D01*
X-1876733Y+2674008D01*
X-1747838Y+2732011D02*
X-1902512Y+2732011D01*
X-1902512Y+2906019D02*
X-1747838Y+2906019D01*
X-1825175Y+2732011D02*
X-1825175Y+2906019D01*
D19*
X-569171Y-1569171D02*
X+569171Y-1569171D01*
X+569171Y-430829D01*
X-569171Y-430829D01*
X-569171Y-1569171D01*
D26*
X-250000Y-1000000D02*
X-250000Y-1000000D01*
D35*
X+276204Y-1456205D02*
X+73446Y-1456205D01*
X+73446Y-1266120D01*
X+107239Y-1228103D01*
X+141032Y-1228103D01*
X+174825Y-1266120D01*
X+174825Y-1456205D01*
X+242411Y-1152068D02*
X+276204Y-1114051D01*
X+276204Y-961983D01*
X+242411Y-923966D01*
X+208618Y-923966D01*
X+174825Y-961983D01*
X+174825Y-1114051D01*
X+141032Y-1152068D01*
X+107239Y-1152068D01*
X+73446Y-1114051D01*
X+73446Y-961983D01*
X+107239Y-923966D01*
X+276204Y-847931D02*
X+73446Y-847931D01*
X+73446Y-619829D02*
X+276204Y-619829D01*
X+174825Y-847931D02*
X+174825Y-619829D01*
M02*
