G04 PROTEUS GERBER X2 FILE*
%TF.GenerationSoftware,Labcenter,Proteus,8.13-SP0-Build31525*%
%TF.CreationDate,2022-10-12T09:32:55+00:00*%
%TF.FileFunction,Copper,L2,Bot*%
%TF.FilePolarity,Positive*%
%TF.Part,Single*%
%TF.SameCoordinates,{96deeafe-a607-4606-be7e-3443a3b47cd9}*%
%FSLAX45Y45*%
%MOMM*%
G01*
%TA.AperFunction,Conductor*%
%ADD10C,0.254000*%
%TA.AperFunction,ViaPad*%
%ADD11C,0.762000*%
%TA.AperFunction,ComponentPad*%
%ADD12C,1.524000*%
%TA.AperFunction,ComponentPad*%
%ADD13C,1.778000*%
%TA.AperFunction,ComponentPad*%
%ADD14R,1.270000X1.270000*%
%ADD15C,1.270000*%
%TA.AperFunction,OtherPad,Unknown*%
%ADD16C,3.500000*%
%TA.AperFunction,ComponentPad*%
%ADD17R,2.032000X2.032000*%
%TA.AperFunction,Profile*%
%ADD18C,0.203110*%
%TD.AperFunction*%
D10*
X-2484000Y+512000D02*
X-2484000Y+706000D01*
X-2667000Y+889000D01*
X-2667000Y+1397000D01*
X-2603500Y+1460500D01*
X-2476500Y+1460500D01*
X-1778000Y+762000D01*
X-1397000Y+762000D01*
X-1333500Y+825500D01*
X-1333500Y+1905000D01*
X-127000Y+3111500D01*
X-127000Y+3302000D01*
X-381000Y+1587500D02*
X-381000Y+1778000D01*
X-1976000Y+512000D02*
X-1845000Y+381000D01*
X-952500Y+381000D01*
X-889000Y+444500D01*
X-889000Y+1778000D01*
X-1722000Y+512000D02*
X-1206500Y+512000D01*
X-1143000Y+575500D01*
X-1143000Y+1778000D01*
X-1587500Y+1460500D02*
X-1587500Y+1968500D01*
X-1143000Y+2413000D01*
X-1143000Y+3302000D01*
X+635000Y+3302000D02*
X+635000Y+2603500D01*
X+762000Y+2476500D01*
X+635000Y+1778000D02*
X+762000Y+1905000D01*
X+762000Y+2476500D01*
X+1651000Y+2413000D02*
X+825500Y+2413000D01*
X+762000Y+2476500D01*
X-635000Y+1778000D02*
X-635000Y+317500D01*
X-1079500Y-127000D01*
X-734000Y-1738000D02*
X-881349Y-1738000D01*
X-881349Y-1690151D01*
X-952500Y-1619000D01*
X-1079500Y-1619000D01*
X-1079500Y-1270000D01*
X+1508000Y-738000D02*
X+1397000Y-849000D01*
X+1397000Y-2369000D01*
X+1266000Y-2500000D01*
X+2512000Y+512000D02*
X+2512000Y+917000D01*
X+2349500Y+1079500D01*
X+2349500Y+2540000D01*
X+2286000Y+2603500D01*
X+952500Y+2603500D01*
X+889000Y+2667000D01*
X+889000Y+3302000D01*
X+1762000Y-738000D02*
X+1595500Y-571500D01*
X+1206500Y-571500D01*
X+1143000Y-635000D01*
X+1143000Y-1841500D01*
X+758000Y-2226500D01*
X+758000Y-2500000D01*
X+1762000Y-738000D02*
X+1762000Y-571500D01*
X+1750000Y-559500D01*
X+1750000Y-250000D01*
X+2766000Y+512000D02*
X+2766000Y+2250500D01*
X+2413000Y+2603500D01*
X+2413000Y+2667000D01*
X+2307693Y+2772307D01*
X+1206500Y+2772307D01*
X+1143000Y+2835807D01*
X+1143000Y+3302000D01*
X+2016000Y-738000D02*
X+2016000Y-262000D01*
X+2004000Y-250000D01*
X+571500Y+3492500D02*
X+1143000Y+3492500D01*
X+1460500Y+3175000D01*
X+1651000Y+3175000D01*
X+2512000Y-250000D02*
X+2524000Y-262000D01*
X+2524000Y-738000D01*
X-1484000Y+1000000D02*
X-1714500Y+1230500D01*
X-1714500Y+2032000D01*
X-1484000Y+2262500D01*
X-1484000Y+2667000D01*
X+2524000Y-1500000D02*
X+2524000Y-738000D01*
X-1484000Y+2667000D02*
X-1484000Y+3365500D01*
X-1428500Y+3421000D01*
X-1428500Y+3492500D01*
X+571500Y+3492500D01*
X+2004000Y+512000D02*
X+2004000Y+1460500D01*
X+1940500Y+1524000D01*
X+63500Y+1524000D01*
X+0Y+1587500D01*
X+0Y+3365500D01*
X+63500Y+3429000D01*
X+254000Y+3429000D01*
X+381000Y+3302000D01*
X+2258000Y+512000D02*
X+2258000Y+1524000D01*
X+2194500Y+1587500D01*
X+317500Y+1587500D01*
X+254000Y+1651000D01*
X+254000Y+3175000D01*
X+127000Y+3302000D01*
X-1992000Y-738000D02*
X-1992000Y-460500D01*
X-1976000Y-444500D01*
X-1976000Y-250000D01*
X-1587500Y-1270000D02*
X-1617000Y-1299500D01*
X-1617000Y-2379000D01*
X-1496000Y-2500000D01*
X-1484000Y-738000D02*
X-1484000Y-912500D01*
X-1587500Y-1016000D01*
X-444500Y-2222500D02*
X-480000Y-2258000D01*
X-480000Y-2500000D01*
X+1012000Y-2500000D02*
X+1115500Y-2603500D01*
X+2603500Y-2603500D01*
X+2667000Y-2540000D01*
X+2667000Y-849000D01*
X+2778000Y-738000D01*
X+1000000Y-1500000D02*
X+468500Y-1500000D01*
X+381000Y-1587500D01*
X+381000Y-2877000D01*
X-242000Y-3500000D01*
X-825500Y-1270000D02*
X-912500Y-1270000D01*
X-976000Y-1333500D01*
X-976000Y-1500000D01*
X-226000Y-1738000D02*
X-734000Y-2246000D01*
X-734000Y-2500000D01*
X-1496000Y-1738000D02*
X-1452849Y-1738000D01*
X-1389349Y-1801500D01*
X-1389349Y-1841500D01*
X-1397000Y-1849151D01*
X-1397000Y-2349500D01*
X-1496000Y-1738000D02*
X-1333500Y-1575500D01*
X-1333500Y-1143000D01*
X-2381000Y+381000D02*
X-2794000Y+381000D01*
X-2857500Y+444500D01*
X-2857500Y+1392500D01*
X-1750000Y+2500000D01*
X-2381000Y+381000D02*
X-2381000Y+889000D01*
X-2500000Y+1008000D01*
X-2500000Y+1000000D01*
X-1206500Y-1143000D02*
X-317500Y-1143000D01*
X-1333500Y-1143000D02*
X-1587500Y-1143000D01*
X-1206500Y-1143000D02*
X-1333500Y-1143000D01*
X-1587500Y-1143000D02*
X-2317500Y-1143000D01*
X-2381000Y-1079500D01*
X-2381000Y+381000D01*
X+0Y-1016000D02*
X-381000Y-1397000D01*
X-825500Y-1397000D01*
X-825500Y-1555500D01*
X-762000Y-1619000D01*
X-599000Y-1619000D01*
X-480000Y-1738000D01*
X+0Y-1016000D02*
X+16000Y-1000000D01*
X+250000Y-1000000D01*
X+0Y-1016000D02*
X-63500Y-952500D01*
X-63500Y+1143000D01*
X-1460500Y+1460500D02*
X-1484000Y+1437000D01*
X-1484000Y+1250000D01*
X-1722000Y-250000D02*
X-567500Y-250000D01*
X-444500Y-127000D01*
X-444500Y+1206500D01*
X-381000Y+1270000D01*
X-20000Y+1270000D01*
X+1000000Y+250000D01*
X+3528000Y-250000D02*
X+3683000Y-250000D01*
X+3683000Y-127000D01*
X+1946500Y-127000D01*
X+1883000Y-63500D01*
X+1883000Y+593500D01*
X+1778000Y+698500D01*
X+1460500Y+698500D01*
X-2500000Y+1250000D02*
X-2095500Y+845500D01*
X-2095500Y+444500D01*
X-1722000Y+71000D01*
X-1722000Y-250000D01*
X+3528000Y-250000D02*
X+2778000Y-1000000D01*
X+2778000Y-1500000D01*
X-63500Y-2095500D02*
X-63500Y-1563500D01*
X-127000Y-1500000D01*
X-722000Y-1500000D01*
X+1000000Y+250000D02*
X+1000000Y+619000D01*
X+1079500Y+698500D01*
X+1460500Y+698500D01*
X+1460500Y+762000D01*
X+1500000Y+801500D01*
X+1500000Y+1250000D01*
X+2016000Y-1500000D02*
X+2016000Y-2258000D01*
X+1774000Y-2500000D01*
X+774000Y-3500000D02*
X+635000Y-3361000D01*
X+635000Y-2032000D01*
X-190500Y-2095500D02*
X-226000Y-2131000D01*
X-226000Y-2500000D01*
X+2016000Y-1500000D02*
X+2270000Y-1500000D01*
X-63500Y-2095500D02*
X-190500Y-2095500D01*
X-2500000Y-738000D02*
X-3262500Y-738000D01*
X-3365500Y-635000D01*
X-3365500Y+377500D01*
X-3500000Y+512000D01*
X-1750000Y-1738000D02*
X-1750000Y-1905000D01*
X-1905000Y-2060000D01*
X-1905000Y-2674500D01*
X-1841500Y-2738000D01*
X-750000Y-2738000D01*
X+250000Y-1738000D02*
X+63500Y-1924500D01*
X+63500Y-2540000D01*
X+0Y-2603500D01*
X-615500Y-2603500D01*
X-750000Y-2738000D01*
X+1000000Y-738000D02*
X+1000000Y-635000D01*
X+1524000Y-111000D01*
X+1524000Y+286000D01*
X+1750000Y+512000D01*
X+1000000Y-738000D02*
X+250000Y-1488000D01*
X+250000Y-1738000D01*
X-2500000Y-738000D02*
X-2500000Y-1270000D01*
X-2349500Y-1420500D01*
X-2349500Y-1674500D01*
X-2286000Y-1738000D01*
X-1750000Y-1738000D01*
D11*
X-381000Y+1587500D03*
X-1587500Y+1460500D03*
X-1079500Y-127000D03*
X-1079500Y-1270000D03*
X-1587500Y-1270000D03*
X-1587500Y-1016000D03*
X-444500Y-2222500D03*
X-825500Y-1270000D03*
X-1397000Y-2349500D03*
X-63500Y+1143000D03*
X-1460500Y+1460500D03*
X+635000Y-2032000D03*
X-190500Y-2095500D03*
D12*
X-1143000Y+1778000D03*
X-889000Y+1778000D03*
X-381000Y+1778000D03*
X-127000Y+1778000D03*
X-127000Y+3302000D03*
X-381000Y+3302000D03*
X-889000Y+3302000D03*
X-1143000Y+3302000D03*
X-635000Y+1778000D03*
X-635000Y+3302000D03*
X+127000Y+1778000D03*
X+381000Y+1778000D03*
X+889000Y+1778000D03*
X+1143000Y+1778000D03*
X+1143000Y+3302000D03*
X+889000Y+3302000D03*
X+381000Y+3302000D03*
X+127000Y+3302000D03*
X+635000Y+1778000D03*
X+635000Y+3302000D03*
D13*
X-2500000Y+1250000D03*
X-1484000Y+1250000D03*
X-2500000Y+1000000D03*
X-1484000Y+1000000D03*
X+1500000Y+1250000D03*
X+2516000Y+1250000D03*
D14*
X+1750000Y-250000D03*
D15*
X+2004000Y-250000D03*
X+2258000Y-250000D03*
X+2512000Y-250000D03*
X+2766000Y-250000D03*
X+3020000Y-250000D03*
X+3274000Y-250000D03*
X+3528000Y-250000D03*
X+3528000Y+512000D03*
X+3274000Y+512000D03*
X+3020000Y+512000D03*
X+2766000Y+512000D03*
X+2512000Y+512000D03*
X+2258000Y+512000D03*
X+2004000Y+512000D03*
X+1750000Y+512000D03*
D14*
X-3500000Y-250000D03*
D15*
X-3246000Y-250000D03*
X-2992000Y-250000D03*
X-2738000Y-250000D03*
X-2484000Y-250000D03*
X-2230000Y-250000D03*
X-1976000Y-250000D03*
X-1722000Y-250000D03*
X-1722000Y+512000D03*
X-1976000Y+512000D03*
X-2230000Y+512000D03*
X-2484000Y+512000D03*
X-2738000Y+512000D03*
X-2992000Y+512000D03*
X-3246000Y+512000D03*
X-3500000Y+512000D03*
D14*
X+1000000Y-1500000D03*
D15*
X+1254000Y-1500000D03*
X+1508000Y-1500000D03*
X+1762000Y-1500000D03*
X+2016000Y-1500000D03*
X+2270000Y-1500000D03*
X+2524000Y-1500000D03*
X+2778000Y-1500000D03*
X+2778000Y-738000D03*
X+2524000Y-738000D03*
X+2270000Y-738000D03*
X+2016000Y-738000D03*
X+1762000Y-738000D03*
X+1508000Y-738000D03*
X+1254000Y-738000D03*
X+1000000Y-738000D03*
D14*
X-2500000Y-1500000D03*
D15*
X-2246000Y-1500000D03*
X-1992000Y-1500000D03*
X-1738000Y-1500000D03*
X-1484000Y-1500000D03*
X-1230000Y-1500000D03*
X-976000Y-1500000D03*
X-722000Y-1500000D03*
X-722000Y-738000D03*
X-976000Y-738000D03*
X-1230000Y-738000D03*
X-1484000Y-738000D03*
X-1738000Y-738000D03*
X-1992000Y-738000D03*
X-2246000Y-738000D03*
X-2500000Y-738000D03*
D14*
X-1750000Y-2500000D03*
D15*
X-1496000Y-2500000D03*
X-1242000Y-2500000D03*
X-988000Y-2500000D03*
X-734000Y-2500000D03*
X-480000Y-2500000D03*
X-226000Y-2500000D03*
X-226000Y-1738000D03*
X-480000Y-1738000D03*
X-734000Y-1738000D03*
X-988000Y-1738000D03*
X-1242000Y-1738000D03*
X-1496000Y-1738000D03*
X-1750000Y-1738000D03*
D14*
X+250000Y-2500000D03*
D15*
X+504000Y-2500000D03*
X+758000Y-2500000D03*
X+1012000Y-2500000D03*
X+1266000Y-2500000D03*
X+1520000Y-2500000D03*
X+1774000Y-2500000D03*
X+1774000Y-1738000D03*
X+1520000Y-1738000D03*
X+1266000Y-1738000D03*
X+1012000Y-1738000D03*
X+758000Y-1738000D03*
X+504000Y-1738000D03*
X+250000Y-1738000D03*
D14*
X-750000Y-3500000D03*
D15*
X-496000Y-3500000D03*
X-242000Y-3500000D03*
X+12000Y-3500000D03*
X+266000Y-3500000D03*
X+520000Y-3500000D03*
X+774000Y-3500000D03*
X+774000Y-2738000D03*
X+520000Y-2738000D03*
X+266000Y-2738000D03*
X+12000Y-2738000D03*
X-242000Y-2738000D03*
X-496000Y-2738000D03*
X-750000Y-2738000D03*
D16*
X-3175000Y+1143000D03*
X-3175000Y-1143000D03*
X+3175000Y+1143000D03*
X+3175000Y-1143000D03*
D17*
X+1651000Y+2413000D03*
X+1651000Y+3175000D03*
D12*
X-1000000Y+250000D03*
X+1000000Y+250000D03*
X-2250000Y+2500000D03*
X-1750000Y+2500000D03*
X-250000Y-1000000D03*
X+250000Y-1000000D03*
D18*
X+3850000Y+0D02*
X+3844096Y+213142D01*
X+3796529Y+639427D01*
X+3699562Y+1065712D01*
X+3549147Y+1491997D01*
X+3338067Y+1918282D01*
X+3053769Y+2344567D01*
X+2673870Y+2770003D01*
X+2247585Y+3125838D01*
X+1821300Y+3391956D01*
X+1395015Y+3588375D01*
X+968730Y+3726132D01*
X+542445Y+3811595D01*
X+116160Y+3848247D01*
X+0Y+3850000D01*
X-3850000Y+0D02*
X-3844096Y+213142D01*
X-3796529Y+639427D01*
X-3699562Y+1065712D01*
X-3549147Y+1491997D01*
X-3338067Y+1918282D01*
X-3053769Y+2344567D01*
X-2673870Y+2770003D01*
X-2247585Y+3125838D01*
X-1821300Y+3391956D01*
X-1395015Y+3588375D01*
X-968730Y+3726132D01*
X-542445Y+3811595D01*
X-116160Y+3848247D01*
X+0Y+3850000D01*
X-3850000Y+0D02*
X-3844096Y-213142D01*
X-3796529Y-639427D01*
X-3699562Y-1065712D01*
X-3549147Y-1491997D01*
X-3338067Y-1918282D01*
X-3053769Y-2344567D01*
X-2673870Y-2770003D01*
X-2247585Y-3125838D01*
X-1821300Y-3391956D01*
X-1395015Y-3588375D01*
X-968730Y-3726132D01*
X-542445Y-3811595D01*
X-116160Y-3848247D01*
X+0Y-3850000D01*
X+3850000Y+0D02*
X+3844096Y-213142D01*
X+3796529Y-639427D01*
X+3699562Y-1065712D01*
X+3549147Y-1491997D01*
X+3338067Y-1918282D01*
X+3053769Y-2344567D01*
X+2673870Y-2770003D01*
X+2247585Y-3125838D01*
X+1821300Y-3391956D01*
X+1395015Y-3588375D01*
X+968730Y-3726132D01*
X+542445Y-3811595D01*
X+116160Y-3848247D01*
X+0Y-3850000D01*
M02*
